<svg width="15" height="13" viewBox="0 0 15 13" fill="none" xmlns="http://www.w3.org/2000/svg">
<g id="Group">
<g id="Group_2">
<path id="Vector" d="M3.77897 8.22266C2.47651 8.22266 1.41602 9.28315 1.41602 10.5856C1.41602 11.8881 2.47651 12.9486 3.77897 12.9486C5.08144 12.9486 6.14193 11.8881 6.14193 10.5856C6.14492 9.28315 5.08442 8.22266 3.77897 8.22266Z" fill="#EF9737"/>
<path id="Vector_2" d="M10.8591 8.22266C9.55659 8.22266 8.49609 9.28315 8.49609 10.5856C8.49609 11.8881 9.55659 12.9486 10.8591 12.9486C12.1615 12.9486 13.222 11.8881 13.222 10.5856C13.222 9.28315 12.1615 8.22266 10.8591 8.22266Z" fill="#EF9737"/>
<path id="Vector_3" d="M9.78853 2.44165L9.05664 3.57683H9.92296V2.5014C9.92296 2.4058 9.92595 2.29826 9.93192 2.17578H9.91698C9.89607 2.23254 9.85126 2.32216 9.78853 2.44165Z" fill="#EF9737"/>
<path id="Vector_4" d="M11.0172 4.11053H10.6079V4.83644H9.92083V4.11053H8.43316V3.63256L9.86706 1.42196H10.6079V3.5758H11.0172V4.11053ZM8.04182 4.2121V4.83644H5.79537V4.25093L6.7752 3.31591C6.97237 3.12771 7.10978 2.96938 7.19044 2.84093C7.2711 2.71247 7.30993 2.57804 7.30993 2.43764C7.30993 2.12397 7.13965 1.96565 6.80209 1.96565C6.50933 1.96565 6.22554 2.08215 5.95967 2.31516V1.65198C6.25541 1.46079 6.59298 1.3652 6.96639 1.3652C7.31591 1.3652 7.58775 1.45183 7.78491 1.62808C7.98207 1.80433 8.07767 2.04033 8.07767 2.33906C8.07767 2.73637 7.83868 3.14862 7.36071 3.5758L6.6587 4.20015V4.21509H8.04182V4.2121ZM14.0284 0H4.03286C3.8357 0 3.65347 0.0926064 3.53995 0.253921L0.116505 4.99178C0.0418222 5.09634 0 5.22181 0 5.35026V9.06647C0 9.30545 0.137416 9.50859 0.337565 9.61015C0.76475 8.11053 2.14488 7.00821 3.78193 7.00821C5.43988 7.00821 6.83794 8.14339 7.24421 9.67587H7.39955C7.80582 8.14339 9.20089 7.00821 10.8618 7.00821C12.4959 7.00821 13.876 8.11053 14.3062 9.61015C14.5063 9.50859 14.6438 9.30545 14.6438 9.06647V0.612397C14.6378 0.271845 14.3659 0 14.0284 0Z" fill="#EF9737"/>
</g>
</g>
</svg>
