<svg width="175" height="24" viewBox="0 0 175 24" fill="none" xmlns="http://www.w3.org/2000/svg">
<g id="Group 123">
<path id="Path 118" d="M7.13369 13.4316C6.40061 15.6698 5.82694 17.3343 5.41267 18.4251C5.12488 19.2661 4.73156 20.0672 4.24214 20.8092C4.11401 21.0298 3.93395 21.2158 3.7176 21.351C3.50126 21.4862 3.25517 21.5665 3.00073 21.585C2.82787 21.5874 2.65599 21.5587 2.49332 21.5002C2.32033 21.4333 2.15277 21.3531 1.99216 21.2604C1.83888 21.1723 1.68112 21.0922 1.51951 21.0206C1.4632 20.9921 1.31098 20.9267 1.0684 20.8231C0.865296 20.7392 0.673383 20.6304 0.497038 20.4992C0.366038 20.3903 0.262271 20.2522 0.193983 20.0961C0.11334 19.9069 0.0746841 19.7025 0.0806834 19.4969C0.0869965 19.252 0.139834 19.0104 0.236381 18.7852C0.340181 18.5266 0.605705 17.9033 1.03295 16.9154C1.46019 15.9274 1.88581 14.908 2.30981 13.857C2.13955 13.8034 1.99582 13.6875 1.90736 13.5324C1.83573 13.3337 1.80477 13.1226 1.81631 12.9117C1.81869 12.7938 1.82797 12.6761 1.84411 12.5593C1.86287 12.3994 1.87261 12.2861 1.87261 12.2208C1.87261 12.136 1.86775 12.0067 1.85871 11.8329C1.84967 11.6592 1.84411 11.5243 1.84411 11.4305C1.84438 11.1979 1.89863 10.9685 2.0026 10.7605C2.10658 10.5524 2.25742 10.3713 2.44327 10.2315C2.84441 9.90225 3.34263 9.71396 3.86124 9.69557C4.06287 9.22322 4.23262 8.73789 4.36935 8.24284C4.50837 7.73311 4.72454 7.0466 5.01786 6.18331C4.90639 6.19096 4.79462 6.17337 4.69089 6.13185C4.58715 6.09033 4.49412 6.02595 4.4187 5.9435C4.28033 5.78012 4.18774 5.58297 4.1504 5.37215C4.108 5.1518 4.07324 4.94675 4.04474 4.75839C4.02597 4.67359 4.00929 4.58948 3.99539 4.50468C3.98149 4.41988 3.96481 4.32605 3.94604 4.22248C3.92727 4.11891 3.93213 4.01395 3.93213 3.89857C3.93213 2.95742 4.72662 2.28018 6.31558 1.86684C7.79843 1.45977 9.32188 1.21848 10.8579 1.14743C11.6608 1.10136 12.4598 1.28999 13.1573 1.69029C13.641 1.98149 14.0229 2.41509 14.2506 2.93171C14.4262 3.3547 14.5205 3.80697 14.5287 4.26488C14.5287 4.59435 14.303 4.80287 13.8517 4.89045C13.1352 5.00812 12.412 5.08125 11.6865 5.10941C10.9622 5.13136 10.2413 5.21625 9.53173 5.36311C9.60749 5.48584 9.64679 5.62759 9.64503 5.77182C9.64192 5.91507 9.62042 6.05734 9.58108 6.19512C9.53891 6.35592 9.4613 6.58761 9.34823 6.89021C9.24536 7.20021 9.12788 7.55123 8.99582 7.94048C8.86375 8.32973 8.72335 8.77458 8.57252 9.27365C9.1731 9.16659 9.78221 9.11471 10.3922 9.11864C10.7672 9.14256 11.1287 9.26731 11.4385 9.47974C11.7484 9.69216 11.9952 9.98435 12.1527 10.3254C12.3102 10.6665 12.3726 11.0438 12.3334 11.4174C12.2941 11.7911 12.1547 12.1472 11.9298 12.4481C11.6704 12.7227 11.3289 12.9059 10.9566 12.9701C10.5799 13.0354 9.97751 13.0964 9.14944 13.1529C8.46984 13.1776 7.79449 13.271 7.13369 13.4316Z" fill="white"/>
<path id="Path 119" d="M14.8389 11.6698C15.4413 10.4284 16.142 9.13324 16.9409 7.78432C17.6524 6.55765 18.4741 5.39832 19.3959 4.32072C20.23 3.3615 20.954 2.8819 21.568 2.8819C21.8634 2.86172 22.158 2.93048 22.4139 3.0793C22.4237 2.68449 22.4332 2.35548 22.4424 2.09228C22.447 1.86155 22.4777 1.63208 22.5342 1.40832C22.577 1.22923 22.6758 1.06851 22.8164 0.949564C22.9949 0.823646 23.2116 0.763689 23.4295 0.779962C24.1632 0.786817 24.8732 1.04048 25.4452 1.50007C25.782 1.79027 26.0448 2.15664 26.2116 2.56875C26.3784 2.98086 26.4445 3.42682 26.4044 3.86961C26.3556 4.95599 26.2496 6.03904 26.0868 7.11425C25.875 8.72221 25.6187 10.4407 25.318 12.2697C25.0173 14.0987 24.768 15.4889 24.5701 16.4402C24.438 17.2391 24.3018 18.0665 24.1614 18.9223C24.0427 19.6918 23.8268 20.4432 23.5191 21.1584C23.2327 21.803 22.8354 22.125 22.3271 22.1246C21.9231 22.0961 21.5253 22.0105 21.1454 21.8702C20.6359 21.7103 20.1583 21.4623 19.7344 21.1376C19.5513 21.0107 19.4009 20.8423 19.2955 20.6461C19.1902 20.4499 19.1328 20.2314 19.1283 20.0087C19.1323 19.7555 19.1702 19.504 19.2409 19.2608C19.316 18.9884 19.4758 18.4712 19.7205 17.7094C19.9749 16.9573 20.2196 16.1675 20.4545 15.3399C19.5138 15.3573 18.5756 15.4421 17.6471 15.5936C17.4682 15.9518 17.0826 16.7699 16.4904 18.0479C16.069 18.9901 15.5786 19.8999 15.0231 20.7699C14.6469 21.3153 14.2613 21.5882 13.8665 21.5887C13.7059 21.5913 13.5484 21.5445 13.4154 21.4545C13.2378 21.3242 13.0747 21.1753 12.9288 21.0104C12.7949 20.8602 12.6514 20.7188 12.4993 20.5871C12.443 20.5398 12.2685 20.4182 11.9773 20.2201C11.7384 20.0647 11.5303 19.8665 11.3635 19.6355C11.2283 19.4127 11.162 19.1549 11.1731 18.8945C11.2122 18.3435 11.3558 17.805 11.5964 17.3077C11.8551 16.6927 12.147 16.0922 12.4708 15.5088C12.3198 15.0035 12.1973 14.4902 12.1038 13.9713C12.0606 13.7626 12.0417 13.5496 12.0475 13.3366C12.0486 13.1404 12.103 12.9482 12.2049 12.7805C12.3067 12.6128 12.4522 12.4759 12.6258 12.3844C13.3239 12.0376 14.0698 11.7967 14.8389 11.6698ZM19.3813 11.6413C19.4751 11.6413 19.6141 11.6372 19.7983 11.6274C19.9825 11.6177 20.1243 11.6135 20.2286 11.6135H21.3004C21.6299 10.0158 21.8792 8.51114 22.0483 7.09966C21.0446 8.54336 20.1528 10.0617 19.3806 11.6413H19.3813Z" fill="white"/>
<path id="Path 120" d="M31.0341 17.3821C31.5284 17.3108 32.0031 17.1403 32.4299 16.8809C32.8824 16.6276 33.2804 16.2875 33.6011 15.88C33.872 15.5668 34.0307 15.1723 34.0522 14.7588C34.0539 14.3221 33.9046 13.8983 33.6296 13.5591C33.2645 13.1136 32.8685 12.6943 32.4445 12.3045C31.8308 11.7639 31.2966 11.1393 30.8576 10.4493C30.4931 9.81753 30.31 9.09739 30.3286 8.36823C30.3744 7.09851 30.8709 5.88661 31.7292 4.94981C32.7028 3.79233 33.9093 2.85282 35.27 2.19242C36.5821 1.52554 38.0299 1.16883 39.5016 1.14979C40.3318 1.11324 41.1593 1.26756 41.9205 1.6009C42.429 1.82466 42.8607 2.19274 43.162 2.65951C43.374 2.99891 43.4938 3.38776 43.5095 3.78763C43.4722 4.44787 43.2818 5.09038 42.9534 5.66435C42.5758 6.39538 42.041 7.03369 41.3874 7.53344C40.7346 8.04862 39.9252 8.32482 39.0936 8.3161C38.7398 8.32051 38.3938 8.21191 38.1059 8.00609C37.9819 7.92644 37.8787 7.81823 37.8051 7.69053C37.7314 7.56283 37.6894 7.41934 37.6826 7.27209C37.7099 6.73907 37.9364 6.23574 38.3172 5.86176C38.5858 5.6149 38.8101 5.32386 38.9803 5.00125C38.9771 4.95263 38.9641 4.90514 38.9423 4.86158C38.9205 4.81801 38.8901 4.77924 38.8531 4.74754C38.8104 4.70112 38.758 4.66462 38.6996 4.6406C38.6413 4.61659 38.5784 4.60564 38.5153 4.60853C37.9662 4.67068 37.4517 4.90807 37.048 5.28554C36.475 5.73623 35.9713 6.26854 35.5529 6.86546C35.2117 7.29127 34.9966 7.80417 34.9322 8.34599C34.9337 8.60538 35.0177 8.85758 35.172 9.0661C35.3546 9.31719 35.5678 9.5446 35.8066 9.74311C36.0791 9.96831 36.3425 10.19 36.5962 10.4055C37.2614 10.9096 37.802 11.5598 38.1762 12.3059C38.5504 13.052 38.7482 13.8741 38.7544 14.7088C38.7354 15.9045 38.3407 17.0639 37.6263 18.0229C36.8661 19.0929 35.8723 19.9757 34.7202 20.6045C33.6355 21.2355 32.4063 21.5758 31.1516 21.5922C30.4009 21.5998 29.6567 21.4533 28.9649 21.1619C28.3726 20.9258 27.835 20.5709 27.385 20.1193C27.056 19.8271 26.8495 19.4215 26.8066 18.9835C26.838 18.5182 26.9888 18.0689 27.2445 17.6789C27.519 17.1977 27.861 16.7584 28.2601 16.3742C28.5245 16.081 28.8843 15.8911 29.2756 15.8383C29.4389 15.8386 29.6003 15.874 29.7488 15.9421C29.8973 16.0102 30.0293 16.1094 30.1361 16.2331C30.4649 16.5921 30.7652 16.9763 31.0341 17.3821Z" fill="white"/>
<path id="Path 121" d="M49.0656 5.27905C49.1629 5.34149 49.2433 5.42691 49.2998 5.52775C49.3563 5.6286 49.3871 5.7418 49.3895 5.85736C49.2725 6.47402 49.1002 7.07888 48.8745 7.66458C48.5316 8.68913 48.1108 9.89278 47.6122 11.2755C47.1136 12.6583 46.587 14.0783 46.0323 15.5357C45.6278 16.6173 45.2656 17.5952 44.9459 18.4697C44.6261 19.3348 44.3678 19.9789 44.1709 20.402C44.0311 20.7359 43.8356 21.0436 43.5926 21.3118C43.5042 21.4013 43.3987 21.472 43.2823 21.5198C43.166 21.5675 43.0413 21.5914 42.9155 21.5899C42.7587 21.5904 42.6031 21.5617 42.4568 21.5051C42.2759 21.4328 42.0992 21.3502 41.9278 21.2576C41.7867 21.1803 41.6406 21.1123 41.4906 21.054C41.2274 20.978 40.9781 20.9073 40.7427 20.842C40.5229 20.7798 40.3187 20.6718 40.1435 20.525C40.0553 20.4475 39.9858 20.3508 39.9405 20.2424C39.8953 20.134 39.8753 20.0167 39.8822 19.8994C39.8867 19.6199 39.9392 19.3432 40.0372 19.0813C40.141 18.7894 40.388 18.1849 40.7782 17.2679C41.1683 16.3508 41.5233 15.4789 41.843 14.6523C42.7462 12.3006 43.2774 10.9062 43.4368 10.4692C43.5963 10.0323 43.7584 9.55498 43.9234 9.03737C44.0879 8.52023 44.3866 7.67385 44.8194 6.49823C44.6099 6.48972 44.4089 6.41381 44.246 6.2818C44.0832 6.1498 43.9674 5.96876 43.9158 5.76561C43.7165 5.30156 43.6111 4.80261 43.6058 4.2976C43.5769 3.77846 43.6916 3.2614 43.9373 2.80317C44.1512 2.45118 44.4762 2.18045 44.8611 2.03371C45.3578 1.85433 45.8738 1.73372 46.3986 1.67435C47.0381 1.59836 47.6963 1.51842 48.3733 1.43455C49.3495 1.28224 50.3338 1.18801 51.3212 1.15234C52.5065 1.15234 53.3012 1.43455 53.7053 1.99896C54.0969 2.49887 54.3148 3.11285 54.326 3.74779C54.3471 3.97635 54.2883 4.20515 54.1597 4.39525C54.0311 4.58535 53.8405 4.725 53.6205 4.79041C52.8727 5.00251 52.0985 5.1069 51.3212 5.10042C50.5666 5.11756 49.8135 5.1772 49.0656 5.27905Z" fill="white"/>
<path id="Path 122" d="M66.0533 6.57744C65.7829 6.58031 65.517 6.508 65.2852 6.36857C65.0535 6.22915 64.8651 6.02809 64.741 5.78783C64.4714 5.32473 64.3256 4.8 64.3177 4.2642C64.3223 3.934 64.4219 3.6121 64.6045 3.33698C64.7872 3.06186 65.0452 2.84516 65.3478 2.71278C66.0974 2.30588 66.9146 2.03813 67.7597 1.92247C68.6176 1.77774 69.4858 1.70243 70.3558 1.69726C71.5766 1.6677 72.782 1.97505 73.8396 2.58558C74.8007 3.15055 75.5812 3.9775 76.0896 4.96971C76.6033 5.97816 76.8656 7.09586 76.8542 8.22757C76.8328 9.80005 76.4796 11.3503 75.8178 12.7769C75.0237 14.4889 73.9607 16.0628 72.6691 17.4388C71.6026 18.5775 70.4154 19.5967 69.1283 20.4784C67.595 21.5739 66.4852 22.1218 65.7989 22.1223C65.3475 22.1223 64.8633 21.6519 64.3461 20.7113C64.2068 20.9196 64.0383 21.1069 63.8457 21.2673C63.6904 21.4292 63.4833 21.5315 63.2604 21.5565C62.8902 21.5195 62.5356 21.3883 62.2303 21.1756C61.8178 20.9325 61.4465 20.6257 61.13 20.2664C60.8486 19.9908 60.678 19.6216 60.6504 19.2287C60.6877 18.792 60.841 18.3732 61.0946 18.0157C61.3911 17.5366 61.8496 16.7796 62.4701 15.7449C63.1832 14.5541 63.801 13.3088 64.3177 12.0206C65.021 10.2484 65.6009 8.4297 66.0533 6.57744ZM66.6594 17.1851C67.8073 16.5155 68.84 15.6654 69.7178 14.6675C70.618 13.6804 71.3675 12.5657 71.942 11.3596C72.4393 10.378 72.7161 9.29955 72.7532 8.19977C72.7835 7.90579 72.7528 7.60872 72.663 7.32717C72.5731 7.04562 72.4261 6.78564 72.2312 6.56354C71.9362 6.26622 71.5377 6.09439 71.119 6.08393C70.9221 6.08382 70.7265 6.1172 70.5407 6.18264C70.3721 6.90691 70.1228 7.80009 69.7928 8.86218C69.4629 9.92427 69.1246 10.9541 68.778 11.9518C68.4295 12.9486 68.0697 13.9078 67.6985 14.8295C67.3274 15.7512 66.981 16.5359 66.6594 17.1837V17.1851Z" fill="white"/>
<path id="Path 123" d="M84.2399 9.63917C84.755 9.58153 85.273 9.55345 85.7913 9.55507C86.3282 9.52621 86.8662 9.58323 87.3851 9.72397C87.5314 9.7853 87.6535 9.89303 87.7325 10.0306C87.8115 10.1681 87.8431 10.3278 87.8223 10.4851C87.8395 11.0209 87.7753 11.5561 87.6319 12.0727C87.5385 12.4114 87.3446 12.7138 87.0758 12.9401C86.7976 13.1283 86.4786 13.2475 86.1451 13.2877C85.6348 13.347 85.1212 13.3727 84.6076 13.3648H82.7601C82.5529 13.7694 82.2517 14.4512 81.8564 15.4105C81.5708 15.9996 81.3712 16.6267 81.2635 17.2726C81.2635 17.602 81.4658 17.7666 81.8703 17.7661C82.7582 17.7154 83.638 17.5688 84.4943 17.3289C84.7292 17.2723 85.0304 17.1924 85.3979 17.0891C85.6481 16.9996 85.9088 16.9426 86.1736 16.9195C86.3968 16.9225 86.6097 17.0137 86.7658 17.1732C86.8668 17.2937 86.9426 17.4332 86.9887 17.5835C87.0347 17.7339 87.0502 17.8919 87.0341 18.0483C87.0834 18.6548 86.9866 19.2642 86.7519 19.8256C86.5454 20.1498 86.2378 20.397 85.8768 20.529C84.9212 20.8692 83.9331 21.1102 82.9283 21.2485C81.9098 21.4467 80.8766 21.5599 79.8393 21.587C79.1114 21.5738 78.3974 21.3849 77.7582 21.0365C77.0488 20.6699 76.6938 19.9035 76.6934 18.7371C76.7821 17.562 77.0461 16.4067 77.4767 15.3097C78.0347 13.697 78.6774 12.1149 79.4021 10.5699C80.0325 9.18265 80.7388 7.83121 81.5179 6.52172C81.3787 6.53799 81.2378 6.51324 81.1125 6.45051C80.9871 6.38778 80.8828 6.2898 80.8124 6.16862C80.6744 5.84372 80.6116 5.49179 80.6289 5.1392C80.6289 5.0266 80.6336 4.84333 80.6428 4.58939C80.6526 4.34472 80.6574 4.16192 80.6574 4.03889C80.6426 3.75744 80.7112 3.47789 80.8548 3.23537C81.0508 2.99367 81.3186 2.82058 81.6194 2.74116C82.1564 2.56596 82.709 2.44305 83.2695 2.37416C83.9841 2.26156 85.0281 2.13945 86.4016 2.00785C87.2005 1.93278 87.8585 1.89525 88.3756 1.89525C88.9294 1.8503 89.4831 1.98378 89.9556 2.27615C90.4381 2.78371 90.7952 3.39714 90.9982 4.06739C91.1721 4.47864 91.2678 4.91874 91.2804 5.3651C91.2804 5.80718 91.0218 6.02798 90.5047 6.02752C90.4199 6.02752 90.1472 5.99485 89.6866 5.92951C89.0871 5.85515 88.4833 5.82194 87.8793 5.83011C87.4362 5.81473 86.9928 5.85278 86.5587 5.94341C86.287 6.0152 86.0434 6.16763 85.8601 6.38062C85.593 6.7315 85.3727 7.11563 85.2047 7.52334C84.9577 8.06875 84.6361 8.77403 84.2399 9.63917Z" fill="white"/>
<path id="Path 124" d="M97.0926 1.14844C97.4973 1.18684 97.8855 1.32775 98.2207 1.55784C98.6719 1.81296 99.0772 2.14188 99.4197 2.53096C99.7033 2.79909 99.8833 3.15871 99.9278 3.54648C99.9151 3.80242 99.8478 4.05269 99.7304 4.28049C99.5983 4.56176 99.2388 5.25036 98.6516 6.34627C98.0645 7.44219 97.432 8.65765 96.7541 9.99268C96.331 10.811 95.8231 11.7841 95.2304 12.912C94.6382 14.0311 94.2443 14.7976 94.0488 15.2114C93.8465 15.6048 93.6675 16.0098 93.5129 16.4243C93.3795 16.7472 93.3031 17.0908 93.287 17.4398C93.287 17.8443 93.4703 18.0466 93.8368 18.0466C93.9743 18.0461 94.1115 18.0319 94.2462 18.0042C94.3852 17.9667 94.606 17.9009 94.9086 17.8068C95.2098 17.703 95.5249 17.5994 95.8539 17.4961C96.4655 17.268 97.0927 17.0842 97.7306 16.9463C98.0587 16.9456 98.3755 17.0664 98.6197 17.2855C98.7523 17.4031 98.8567 17.5491 98.9251 17.7126C98.9935 17.8762 99.024 18.0531 99.0145 18.2301C99.021 18.6946 98.9075 19.1529 98.685 19.5607C98.4625 19.9685 98.1386 20.312 97.7446 20.5579C96.8747 21.1505 95.8974 21.5673 94.8676 21.7848C93.9501 21.991 93.0142 22.1044 92.0741 22.1233C91.4437 22.1334 90.8294 21.9241 90.3363 21.5311C89.8335 21.1303 89.4405 20.6084 89.1943 20.0144C88.9394 19.4388 88.8048 18.8172 88.7988 18.1877C88.8187 17.8316 88.8683 17.4777 88.9469 17.1298C89.1303 16.3406 89.3613 15.5633 89.6385 14.802C89.9999 13.7496 90.5759 12.3627 91.3665 10.6412C92.1468 8.9109 93.1906 6.84673 94.4978 4.44869C94.629 4.19522 94.8266 3.8215 95.0907 3.32753C95.3549 2.83355 95.5826 2.43619 95.774 2.13545C95.9412 1.86409 96.1508 1.62122 96.3947 1.41605C96.5888 1.24784 96.8358 1.15313 97.0926 1.14844Z" fill="white"/>
<path id="Path 125" d="M103.343 22.1237C102.883 22.1004 102.437 21.9542 102.052 21.7004C101.587 21.4273 101.174 21.0743 100.832 20.6578C100.531 20.3346 100.351 19.9169 100.324 19.4761C100.324 18.781 101.674 15.2637 104.372 8.92407C105.426 6.47043 106.19 4.74268 106.666 3.74083C106.976 3.01385 107.376 2.32906 107.858 1.70285C107.983 1.53835 108.142 1.40361 108.325 1.30839C108.508 1.21317 108.71 1.15987 108.916 1.15234C109.292 1.21227 109.637 1.39599 109.896 1.67435C110.292 2.01743 110.64 2.41097 110.933 2.84487C111.171 3.14163 111.322 3.498 111.37 3.87499C111.376 4.33391 111.29 4.78933 111.117 5.21441C110.947 5.61987 110.517 6.51816 109.826 7.90925C109.135 9.30034 108.449 10.8307 107.766 12.5003C107.084 14.1685 106.339 16.282 105.531 18.8408C105.371 19.377 105.232 19.8357 105.114 20.2171C105.012 20.5574 104.885 20.8896 104.734 21.2111C104.612 21.4743 104.431 21.706 104.205 21.8881C103.949 22.0551 103.648 22.1375 103.343 22.1237Z" fill="white"/>
<path id="Path 126" d="M115.096 14.0392H115.209C115.651 13.5123 116.128 12.8752 116.641 12.1277C117.153 11.3803 117.666 10.5832 118.178 9.73662C118.69 8.89001 119.149 8.10456 119.553 7.38029C119.958 6.64767 120.329 5.92942 120.665 5.22553C120.75 5.03739 120.968 4.52234 121.321 3.68036C121.565 3.04335 121.88 2.43557 122.259 1.86828C122.366 1.70274 122.512 1.56602 122.685 1.47015C122.857 1.37428 123.05 1.32219 123.247 1.31846C123.671 1.37912 124.055 1.60156 124.319 1.93917C124.727 2.36149 125.077 2.83567 125.361 3.3495C125.596 3.73533 125.741 4.16919 125.785 4.61872C125.785 5.28646 125.22 6.51445 124.092 8.30266C122.963 10.0909 121.91 11.6567 120.932 13C120.602 13.4699 120.085 14.1798 119.38 15.1298C118.676 16.0797 117.891 17.0906 117.025 18.1624C116.264 19.136 115.452 20.0685 114.592 20.956C113.825 21.7358 113.269 22.126 112.924 22.1265C112.267 22.0575 111.663 21.7363 111.238 21.2305C110.949 20.9608 110.719 20.6342 110.563 20.2712C110.406 19.9083 110.326 19.5169 110.328 19.1216C110.328 18.9525 110.385 18.4824 110.498 17.7113C110.611 16.9402 110.872 15.4544 111.28 13.2537C111.69 11.0531 112.289 8.02973 113.079 4.1836C113.206 3.37724 113.429 2.58883 113.742 1.83491C113.874 1.59941 114.074 1.40862 114.315 1.28683C114.556 1.16504 114.828 1.11775 115.096 1.15095C115.759 1.1602 116.396 1.41078 116.888 1.85577C117.155 2.07347 117.37 2.34949 117.514 2.66272C117.659 2.97595 117.73 3.31809 117.722 3.66298C117.713 4.07298 117.654 4.48037 117.546 4.8759C117.428 5.33698 117.092 6.56681 116.537 8.5654C115.983 10.564 115.503 12.3886 115.096 14.0392Z" fill="white"/>
<path id="Path 127" d="M130.559 9.63705C131.074 9.57939 131.592 9.55131 132.11 9.55295C132.647 9.52414 133.185 9.58116 133.704 9.72186C133.85 9.78308 133.972 9.8908 134.051 10.0284C134.13 10.1659 134.162 10.3257 134.141 10.483C134.159 11.0188 134.094 11.5541 133.951 12.0705C133.858 12.4096 133.664 12.7122 133.395 12.938C133.116 13.1261 132.797 13.2452 132.464 13.2855C131.953 13.3448 131.44 13.3706 130.926 13.3627H129.078C128.871 13.7672 128.57 14.4491 128.175 15.4083C127.889 15.9975 127.69 16.6246 127.582 17.2705C127.582 17.5999 127.784 17.7644 128.188 17.764C129.076 17.7133 129.956 17.5667 130.812 17.3268C131.047 17.2705 131.348 17.1877 131.716 17.087C131.967 16.9975 132.228 16.9405 132.493 16.9174C132.716 16.9206 132.929 17.0118 133.085 17.1711C133.186 17.2915 133.261 17.4311 133.307 17.5814C133.353 17.7318 133.369 17.8898 133.352 18.0462C133.402 18.6523 133.307 19.2616 133.074 19.8235C132.867 20.1483 132.56 20.3961 132.198 20.529C131.243 20.8692 130.255 21.1103 129.251 21.2484C128.232 21.4467 127.199 21.5599 126.162 21.5869C125.434 21.5739 124.72 21.385 124.081 21.0364C123.371 20.6699 123.016 19.9034 123.016 18.7371C123.104 17.5619 123.368 16.4067 123.799 15.3096C124.357 13.6969 125 12.1148 125.724 10.5699C126.355 9.18274 127.061 7.83132 127.84 6.52169C127.701 6.53795 127.56 6.5132 127.435 6.45047C127.309 6.38774 127.205 6.28977 127.135 6.16859C126.997 5.84369 126.934 5.49176 126.951 5.13917C126.951 5.02657 126.956 4.84329 126.965 4.58936C126.975 4.34469 126.98 4.16188 126.98 4.03885C126.965 3.75741 127.033 3.47785 127.177 3.23534C127.373 2.99363 127.641 2.82055 127.942 2.74113C128.479 2.566 129.031 2.4431 129.592 2.37413C130.306 2.26153 131.35 2.13942 132.724 2.00782C133.523 1.93275 134.182 1.89522 134.699 1.89522C135.253 1.85037 135.806 1.98385 136.278 2.27612C136.761 2.78349 137.118 3.39698 137.32 4.06735C137.494 4.47861 137.59 4.91871 137.603 5.36507C137.603 5.80714 137.344 6.02795 136.826 6.02749C136.742 6.02749 136.469 5.99482 136.009 5.92948C135.409 5.85512 134.806 5.82191 134.202 5.83008C133.758 5.81487 133.315 5.85291 132.881 5.94338C132.611 6.0162 132.369 6.16852 132.186 6.38059C131.918 6.73113 131.698 7.11533 131.53 7.52331C131.277 8.06732 130.953 8.77191 130.559 9.63705Z" fill="white"/>
<path id="Path 128" d="M141.939 14.2647H141.825C141.487 15.1206 141.117 16.1387 140.713 17.3189C140.31 18.4992 140.013 19.3384 139.825 19.8365C139.67 20.2694 139.466 20.6835 139.219 21.071C139.148 21.2078 139.044 21.3243 138.916 21.4094C138.787 21.4946 138.64 21.5456 138.486 21.5576C137.492 21.4939 136.538 21.1383 135.745 20.5351C135.552 20.3954 135.394 20.212 135.286 19.9998C135.177 19.7877 135.12 19.5529 135.119 19.3145C135.244 18.5967 135.46 17.8977 135.761 17.2341C136.188 16.1294 136.698 14.8857 137.29 13.5029C137.892 12.1211 138.5 10.7506 139.114 9.39152C139.728 8.0324 140.201 7.0097 140.531 6.32342C140.211 6.00274 140.021 5.57574 139.996 5.12371C139.886 4.52754 139.829 3.92274 139.826 3.31649C139.806 3.14538 139.839 2.97218 139.921 2.8207C140.003 2.66923 140.131 2.54692 140.285 2.47057C140.698 2.30024 141.131 2.18638 141.574 2.13207C142.1 2.01946 142.54 1.93003 142.895 1.86376C143.278 1.78433 143.665 1.72425 144.054 1.68374C144.513 1.63542 144.974 1.61222 145.436 1.61423C146.617 1.56988 147.79 1.82981 148.841 2.36909C149.666 2.79981 150.346 3.4614 150.8 4.27293C151.195 4.98789 151.406 5.79012 151.413 6.60702C151.397 7.55756 151.07 8.47668 150.483 9.22401C149.854 10.0756 149.098 10.8257 148.242 11.4483C147.397 12.0702 146.507 12.6267 145.578 13.113C145.776 14.7155 146.159 16.2895 146.72 17.8034C147.072 18.6306 147.512 19.4179 148.031 20.1521C148.443 20.6358 148.69 21.2386 148.735 21.8724C148.735 22.099 148.538 22.318 148.144 22.5293C147.717 22.7526 147.268 22.9297 146.804 23.0576C146.42 23.1715 146.023 23.238 145.623 23.2556C144.956 23.2556 144.35 22.7619 143.805 21.7744C143.205 20.6358 142.766 19.4194 142.501 18.16C142.195 16.8815 142.006 15.5776 141.939 14.2647ZM143.615 9.99068C144.433 9.48327 145.072 9.07201 145.532 8.75691C145.984 8.44888 146.4 8.09175 146.773 7.69204C147.098 7.39533 147.299 6.98704 147.336 6.54863C147.341 6.41955 147.312 6.29142 147.253 6.17661C147.194 6.0618 147.106 5.96417 146.998 5.89317C146.728 5.7252 146.412 5.64395 146.094 5.66031C145.821 5.68622 145.552 5.74288 145.292 5.82922C144.868 6.89177 144.563 7.64895 144.375 8.10075C144.178 8.54329 143.925 9.17349 143.615 9.99137V9.99068Z" fill="white"/>
<path id="Path 129" d="M154.758 13.8578C154.155 11.8655 153.883 9.78747 153.954 7.70698C153.954 7.50031 153.949 7.13354 153.941 6.60666C153.932 6.07979 153.926 5.66714 153.924 5.36872C153.898 4.38617 154.002 3.40447 154.234 2.44937C154.441 1.71536 154.841 1.34859 155.433 1.34905C155.62 1.35039 155.805 1.37895 155.983 1.43385C156.154 1.48333 156.319 1.54944 156.477 1.63125C156.616 1.70702 156.768 1.78626 156.928 1.87106C157.276 1.99339 157.572 2.09928 157.817 2.18871C158.054 2.2729 158.267 2.41312 158.438 2.59742C158.628 2.84486 158.718 3.15422 158.692 3.46488C158.718 4.10512 158.613 4.74403 158.382 5.34161C158.27 5.65521 158.189 5.97906 158.141 6.30847C158.077 6.80158 158.049 7.29874 158.057 7.79595C158.057 8.31402 158.076 8.99103 158.113 9.82698C158.875 8.74589 159.604 7.62241 160.3 6.45652C160.996 5.29064 161.579 4.3101 162.049 3.51493C162.402 2.88907 162.808 2.29467 163.262 1.7383C163.373 1.5769 163.518 1.44113 163.686 1.34007C163.853 1.23901 164.041 1.175 164.236 1.15234C164.594 1.2262 164.92 1.41161 165.166 1.682C165.569 2.03267 165.931 2.42765 166.246 2.85946C166.487 3.13045 166.65 3.46204 166.718 3.81868C166.718 4.21349 166.102 5.26191 164.87 6.96394C163.958 8.22482 163.229 9.2262 162.684 9.96808C162.139 10.71 161.706 11.2839 161.386 11.6898C161.066 12.0939 160.807 12.4183 160.61 12.6629C160.403 12.8988 160.168 13.1768 159.905 13.497C159.522 13.94 159.173 14.4117 158.863 14.908C158.585 15.412 158.345 15.9351 158.142 16.4734C157.908 17.1133 157.588 18.0255 157.184 19.2099C157.023 19.766 156.859 20.316 156.69 20.86C156.554 21.3532 156.348 21.8244 156.079 22.2592C155.986 22.4298 155.85 22.5727 155.684 22.673C155.517 22.7733 155.327 22.8274 155.133 22.8299C154.952 22.8378 154.773 22.7834 154.626 22.6756C154.319 22.5209 153.982 22.4341 153.638 22.4212C153.248 22.3773 152.872 22.2475 152.538 22.041C152.379 21.9086 152.256 21.7384 152.179 21.5461C152.103 21.3538 152.076 21.1454 152.101 20.94C152.103 20.6914 152.141 20.4444 152.213 20.2067C152.288 19.9532 152.458 19.513 152.721 18.886C152.984 18.259 153.271 17.5725 153.582 16.8265C153.894 16.0795 154.286 15.0899 154.758 13.8578Z" fill="white"/>
<path id="Path 130" d="M168.314 19.2607C168.299 19.5859 168.22 19.9049 168.081 20.1991C167.926 20.5612 167.811 20.8545 167.733 21.0811C167.667 21.3439 167.601 21.6539 167.536 22.0112C167.517 22.2761 167.43 22.5316 167.282 22.7521C167.19 22.8268 167.084 22.8822 166.97 22.9149C166.856 22.9476 166.737 22.957 166.62 22.9426C165.841 22.9138 165.092 22.6426 164.475 22.1669C164.147 21.9702 163.874 21.6938 163.682 21.3632C163.489 21.0326 163.384 20.6586 163.375 20.2762C163.383 19.792 163.474 19.3128 163.643 18.859C163.802 18.3888 164.057 17.9565 164.391 17.589C164.522 17.4319 164.686 17.3047 164.871 17.216C165.056 17.1273 165.258 17.0791 165.463 17.0747C165.882 17.09 166.294 17.1957 166.668 17.3847C167.102 17.5828 167.494 17.8603 167.825 18.2028C168.121 18.4768 168.297 18.8573 168.314 19.2607ZM174.421 4.12528C174.413 4.38988 174.35 4.64999 174.238 4.88987C174.106 5.16234 173.754 5.86298 173.181 6.99179C172.607 8.11088 171.995 9.36203 171.346 10.7452C171.083 11.3375 170.785 12.0993 170.451 13.0307C170.117 13.9621 169.862 14.6437 169.686 15.0756C169.535 15.4699 169.324 15.8385 169.061 16.1683C168.957 16.3062 168.823 16.4182 168.669 16.4954C168.515 16.5726 168.345 16.6129 168.172 16.6131C167.832 16.5623 167.515 16.4099 167.262 16.1759C166.882 15.8858 166.546 15.544 166.261 15.1604C166.021 14.888 165.871 14.5482 165.831 14.1873C165.852 13.8381 165.922 13.4936 166.039 13.1641C166.178 12.7174 166.338 12.2638 166.518 11.8032C166.698 11.3426 166.943 10.7311 167.252 9.96884C167.562 9.19822 167.924 8.30968 168.338 7.30319C168.827 6.09051 169.241 5.05831 169.579 4.2066C169.834 3.52105 170.161 2.86409 170.552 2.24646C170.66 2.04947 170.817 1.88327 171.007 1.76359C171.197 1.64391 171.415 1.5747 171.639 1.5625C172.006 1.62901 172.352 1.78382 172.647 2.01361C173.105 2.3081 173.52 2.66406 173.882 3.07152C174.18 3.34861 174.371 3.72154 174.423 4.12528H174.421Z" fill="white"/>
</g>
</svg>
