<svg width="47" height="44" viewBox="0 0 47 44" fill="none" xmlns="http://www.w3.org/2000/svg">
<g id="Group 33404">
<path id="Star 1" d="M6.66667 10.668L7.96763 14.9345L13.007 14.6987L8.77167 17.0998L10.5852 21.2206L6.66667 18.438L2.7481 21.2206L4.56166 17.0998L0.32629 14.6987L5.3657 14.9345L6.66667 10.668Z" fill="white"/>
<path id="Star 3" d="M40.0007 0L41.3016 4.26654L46.341 4.03073L42.1057 6.4318L43.9192 10.5526L40.0007 7.77L36.0821 10.5526L37.8956 6.4318L33.6603 4.03073L38.6997 4.26654L40.0007 0Z" fill="white"/>
<path id="Star 4" d="M40.0007 32.332L41.3016 36.5986L46.341 36.3628L42.1057 38.7638L43.9192 42.8846L40.0007 40.102L36.0821 42.8846L37.8956 38.7638L33.6603 36.3628L38.6997 36.5986L40.0007 32.332Z" fill="white"/>
<path id="Star 2" d="M28.3333 10.668L30.9353 18.5915L41.0141 18.1536L32.5433 22.6127L36.1705 30.2657L28.3333 25.098L20.4962 30.2657L24.1233 22.6127L15.6526 18.1536L25.7314 18.5915L28.3333 10.668Z" fill="white"/>
</g>
</svg>
