<svg width="306" height="313" viewBox="0 0 306 313" fill="none" xmlns="http://www.w3.org/2000/svg">
<path d="M259.841 25.8522C259.841 25.8522 254.871 4.24971 226.203 8.32915C226.203 8.32915 203.221 14.0073 203.683 36.3195C203.683 36.3195 219.695 25.9092 243.58 26.1094L259.841 25.8522Z" fill="#EF9737"/>
<path d="M203.68 37.3603C203.408 37.3604 203.146 37.2535 202.951 37.0626C202.756 36.8717 202.643 36.612 202.638 36.3392C202.167 13.4585 225.715 7.37374 225.954 7.31605C225.988 7.3073 226.022 7.30034 226.057 7.2952C255.337 3.13582 260.804 25.3917 260.857 25.6176C260.891 25.769 260.892 25.9263 260.858 26.078C260.824 26.2296 260.757 26.3718 260.661 26.4942C260.566 26.6165 260.444 26.7159 260.304 26.785C260.165 26.8541 260.012 26.8913 259.857 26.8938L243.592 27.1509C220.289 26.9424 204.405 37.0906 204.25 37.1921C204.081 37.3023 203.883 37.3607 203.68 37.3603ZM226.406 9.35195C225.004 9.71131 205.5 15.0628 204.74 34.4778C209.418 31.8567 223.732 24.8947 243.585 25.0657L258.447 24.8301C256.9 20.3725 250.023 6.01694 226.406 9.35195Z" fill="#E2271E"/>
<path d="M203.682 36.3197C203.682 36.3197 217.59 25.769 243.579 26.1096L266.031 26.225C266.031 26.225 275.92 26.305 271.493 29.6935C268.262 32.0889 264.9 34.3011 261.422 36.3197H203.682Z" fill="#FF5745"/>
<path d="M239.732 9.37224C239.455 9.37224 239.19 9.2624 238.994 9.06687C238.799 8.87134 238.689 8.60614 238.689 8.32962V7.91952C238.687 6.49908 238.122 5.13728 237.118 4.13288C236.113 3.12847 234.752 2.56347 233.331 2.56181H230.05C228.629 2.56347 227.268 3.12849 226.263 4.13292C225.259 5.13734 224.694 6.49914 224.693 7.91952V8.32962C224.693 8.60614 224.583 8.87134 224.387 9.06687C224.192 9.2624 223.927 9.37224 223.65 9.37224C223.374 9.37224 223.108 9.2624 222.913 9.06687C222.717 8.87134 222.607 8.60614 222.607 8.32962V7.91952C222.61 5.94632 223.394 4.05457 224.79 2.65924C226.185 1.26391 228.076 0.478954 230.05 0.476562H233.331C235.304 0.47877 237.196 1.26365 238.592 2.659C239.987 4.05434 240.772 5.9462 240.774 7.91952V8.32962C240.774 8.60614 240.664 8.87134 240.469 9.06687C240.273 9.2624 240.008 9.37224 239.732 9.37224Z" fill="#E2271E"/>
<path d="M178.454 83.2772C178.454 83.2772 185.29 104.125 160.067 113.872C134.844 123.618 121.784 103.171 121.38 90.2683C121.044 79.5488 122.187 71.6366 131.798 66.2782C131.798 66.2782 158.069 63.2365 178.454 83.2772Z" fill="#FF5745"/>
<path d="M264.152 163.383L280.165 185.119L236.359 210.523L224.756 179.275C224.756 179.275 232.911 179.154 235.47 168.88C235.47 168.88 245.327 173.719 264.152 163.383Z" fill="#EF9737"/>
<path d="M236.359 211.565C236.147 211.565 235.939 211.5 235.764 211.379C235.59 211.257 235.456 211.085 235.382 210.886L223.778 179.638C223.72 179.482 223.7 179.314 223.721 179.148C223.741 178.982 223.801 178.824 223.895 178.686C223.989 178.548 224.115 178.435 224.262 178.356C224.409 178.277 224.573 178.235 224.74 178.232C225.037 178.225 232.137 177.954 234.459 168.628C234.497 168.477 234.567 168.337 234.666 168.217C234.765 168.097 234.89 168 235.031 167.935C235.172 167.869 235.326 167.836 235.481 167.837C235.637 167.839 235.79 167.875 235.93 167.944C236.019 167.987 245.625 172.366 263.651 162.468C263.872 162.347 264.13 162.31 264.377 162.364C264.624 162.419 264.842 162.561 264.992 162.764L281.005 184.5C281.091 184.618 281.152 184.753 281.184 184.897C281.215 185.04 281.216 185.188 281.186 185.331C281.156 185.475 281.096 185.61 281.011 185.729C280.925 185.848 280.815 185.947 280.688 186.021L236.882 211.425C236.723 211.517 236.543 211.565 236.359 211.565ZM226.183 180.121L236.906 209L278.636 184.8L263.851 164.734C248.664 172.843 239.302 171.222 236.171 170.255C233.906 177.602 228.699 179.586 226.183 180.121Z" fill="#E2271E"/>
<path d="M236.359 210.524L224.756 179.276C224.756 179.276 219.257 180.263 215.303 178.164L207.588 203.731L236.359 210.524Z" fill="#FF5745"/>
<path d="M223.016 155.06L218.938 120.38L215.303 121.91L211.31 118.66L208.385 123.681L203.682 121.318L215.42 149.558C215.42 149.558 216.807 159.85 223.016 155.06Z" fill="#FF5745"/>
<path d="M203.682 121.317L246.787 102.797L247.886 106.203L254.863 104.28L257.265 108.832L220.634 120.709C220.634 120.709 207.689 128.997 203.682 121.317Z" fill="#FF5745"/>
<path d="M224.756 179.275C227.004 178.633 229.103 177.551 230.929 176.091C232.756 174.631 234.274 172.822 235.396 170.77C235.396 170.77 250.192 171.171 264.152 163.383L266.003 165.896C266.003 165.896 244.033 176.29 235.47 173.009C235.47 173.009 233.957 181.371 225.566 181.458L224.756 179.275Z" fill="#FF6B43"/>
<path d="M212.092 206.022L236.36 210.521L252.625 200.941L254.866 203.255L237.305 213.055C237.305 213.055 219.799 208.838 212.092 206.022Z" fill="#FF5745"/>
<path d="M260.193 143.324L266.005 106.828L220.635 120.71C220.635 120.71 218.662 148.263 223.017 155.056C223.017 155.056 223.53 136.745 227.768 138.639C232.007 140.534 230.552 149.912 234.986 153.564C239.42 157.216 259.65 145.185 260.193 143.324Z" fill="#EF9737"/>
<path d="M223.017 156.098C222.842 156.099 222.67 156.055 222.517 155.971C222.363 155.887 222.233 155.766 222.139 155.619C217.649 148.614 219.514 121.774 219.595 120.635C219.61 120.425 219.688 120.224 219.82 120.059C219.951 119.895 220.129 119.774 220.33 119.712L265.7 105.831C265.869 105.779 266.049 105.771 266.222 105.808C266.395 105.845 266.556 105.925 266.689 106.041C266.823 106.157 266.924 106.306 266.985 106.472C267.045 106.638 267.062 106.817 267.034 106.992L261.222 143.488C261.215 143.53 261.205 143.573 261.193 143.615C260.568 145.755 249.076 152.313 242.274 154.41C238.407 155.602 235.806 155.592 234.322 154.368C231.868 152.346 231.046 148.877 230.321 145.819C229.653 143.002 229.022 140.342 227.342 139.59C227.295 139.559 227.241 139.542 227.185 139.542C227.129 139.543 227.074 139.561 227.029 139.594C225.435 140.596 224.248 148.416 224.059 155.085C224.051 155.356 223.938 155.614 223.743 155.804C223.548 155.993 223.288 156.099 223.016 156.098H223.017ZM227.169 137.461C227.523 137.463 227.872 137.54 228.193 137.687C230.814 138.859 231.56 142.006 232.35 145.338C233.031 148.212 233.736 151.183 235.648 152.759C236.205 153.218 237.386 153.327 238.985 153.069C245.904 151.945 257.956 144.623 259.192 142.99L264.714 108.316L221.631 121.498C221.412 125.038 220.567 140.891 222.299 149.777C222.729 145.17 223.708 139.223 225.921 137.831C226.294 137.592 226.727 137.463 227.169 137.461Z" fill="#E2271E"/>
<path d="M175.708 81.7774C175.708 81.7774 182.478 103.022 159.263 111.992C136.049 120.962 121.023 98.9112 123.706 87.3373C126.389 75.7635 124.88 71.6236 133.725 66.6933C133.725 66.692 156.947 63.3333 175.708 81.7774Z" fill="#EF9737"/>
<path d="M195.062 114.559L188.899 120.404L122.24 137.031L124.948 132.583L195.062 114.559Z" fill="#FF5745"/>
<path d="M237.299 87.2859L234.317 93.1385C234.317 93.1385 215.526 88.6135 213.256 75.7656C213.261 75.7663 221.319 86.6326 237.299 87.2859Z" fill="#FF5745"/>
<path d="M235.491 88.3803C222.245 88.3803 210.46 78.6492 206.831 64.7246C206.776 64.4621 206.823 64.1882 206.964 63.9598C207.105 63.7315 207.329 63.5663 207.588 63.4986C207.848 63.4309 208.124 63.4659 208.358 63.5964C208.593 63.7269 208.768 63.9427 208.847 64.1991C212.237 77.2083 223.193 86.2951 235.489 86.2951C250.612 86.2951 260.773 75.1418 260.773 58.5418L260.378 36.3387C260.375 36.2018 260.4 36.0657 260.45 35.9383C260.5 35.8108 260.575 35.6945 260.67 35.5959C260.765 35.4974 260.879 35.4185 261.004 35.3638C261.13 35.3092 261.265 35.2798 261.402 35.2773H261.421C261.695 35.2773 261.957 35.3847 262.152 35.5763C262.347 35.7679 262.459 36.0285 262.464 36.3019L262.859 58.523C262.86 76.3901 251.862 88.3803 235.491 88.3803Z" fill="#E2271E"/>
<path d="M261.389 37.3635H203.681C203.405 37.3635 203.14 37.2537 202.944 37.0581C202.749 36.8626 202.639 36.5974 202.639 36.3209C202.639 20.0497 215.448 6.8125 231.193 6.8125H233.876C246.991 6.8125 257.322 13.992 260.839 25.5499C260.911 25.8118 260.878 26.0914 260.746 26.3292C260.615 26.5671 260.397 26.7444 260.137 26.8235C259.877 26.9026 259.597 26.8771 259.355 26.7526C259.114 26.628 258.931 26.4142 258.844 26.1567C255.555 15.3495 246.221 8.89845 233.876 8.89845H231.193C216.935 8.89845 205.273 20.6384 204.743 35.2782H261.389C261.665 35.2782 261.93 35.3881 262.126 35.5836C262.321 35.7792 262.431 36.0444 262.431 36.3209C262.431 36.5974 262.321 36.8626 262.126 37.0581C261.93 37.2537 261.665 37.3635 261.389 37.3635Z" fill="#E2271E"/>
<path d="M216.293 59.586C212.331 59.586 209.111 56.1057 209.111 51.8281C209.111 47.5506 212.333 44.0703 216.293 44.0703C217.259 44.0741 218.214 44.2815 219.094 44.6788C219.975 45.0762 220.762 45.6547 221.404 46.3766C221.5 46.4769 221.576 46.5955 221.625 46.7254C221.675 46.8553 221.699 46.9938 221.694 47.1329C221.69 47.2719 221.657 47.4087 221.599 47.535C221.541 47.6614 221.458 47.7749 221.355 47.8687C221.253 47.9625 221.132 48.0349 221.001 48.0815C220.87 48.128 220.731 48.1479 220.592 48.1399C220.453 48.1319 220.317 48.0962 220.192 48.0348C220.068 47.9735 219.956 47.8878 219.865 47.7827C219.417 47.276 218.868 46.8693 218.252 46.5889C217.637 46.3086 216.969 46.1609 216.293 46.1556C213.483 46.1556 211.197 48.7003 211.197 51.8281C211.197 54.956 213.483 57.5007 216.293 57.5007C217.05 57.5012 217.796 57.3158 218.465 56.9606C218.586 56.8967 218.719 56.8573 218.855 56.8447C218.992 56.832 219.129 56.8463 219.26 56.8868C219.391 56.9273 219.513 56.9932 219.618 57.0807C219.723 57.1682 219.81 57.2756 219.874 57.3968C219.938 57.518 219.978 57.6505 219.99 57.7869C220.003 57.9233 219.989 58.0609 219.948 58.1918C219.908 58.3226 219.842 58.4442 219.754 58.5496C219.667 58.655 219.559 58.7422 219.438 58.8061C218.47 59.3205 217.39 59.5884 216.293 59.586Z" fill="#E2271E"/>
<path d="M215.896 56.6197C214.682 56.5356 213.546 55.9942 212.715 55.1048C211.885 54.2153 211.424 53.044 211.424 51.8274C211.424 50.6108 211.885 49.4395 212.715 48.5501C213.546 47.6606 214.682 47.1192 215.896 47.0352C216.499 47.0372 217.095 47.1663 217.645 47.4139C218.195 47.6616 218.687 48.0223 219.088 48.4726C219.183 48.5732 219.257 48.6916 219.306 48.821C219.354 48.9504 219.377 49.0881 219.372 49.2263C219.367 49.3644 219.334 49.5002 219.276 49.6256C219.218 49.7511 219.136 49.8637 219.034 49.957C218.932 50.0504 218.812 50.1225 218.682 50.1692C218.552 50.2159 218.414 50.2362 218.276 50.2291C218.138 50.2219 218.002 50.1874 217.878 50.1275C217.753 50.0676 217.642 49.9835 217.55 49.8801C217.343 49.6445 217.089 49.455 216.804 49.3241C216.519 49.1932 216.209 49.1238 215.896 49.1204C215.237 49.2044 214.632 49.5256 214.193 50.0239C213.754 50.5222 213.512 51.1634 213.512 51.8274C213.512 52.4914 213.754 53.1326 214.193 53.6309C214.632 54.1293 215.237 54.4505 215.896 54.5344C216.244 54.5347 216.586 54.4495 216.893 54.2863C217.014 54.2224 217.147 54.183 217.283 54.1703C217.42 54.1576 217.557 54.1719 217.688 54.2124C217.819 54.2528 217.94 54.3187 218.046 54.4061C218.151 54.4936 218.238 54.601 218.302 54.7221C218.366 54.8432 218.405 54.9757 218.418 55.1121C218.431 55.2485 218.417 55.386 218.376 55.5168C218.336 55.6476 218.27 55.7692 218.182 55.8746C218.095 55.98 217.988 56.0671 217.866 56.131C217.26 56.4531 216.583 56.621 215.896 56.6197Z" fill="#E2271E"/>
<path d="M232.506 53.0285C233.508 53.0285 234.32 51.8468 234.32 50.3892C234.32 48.9316 233.508 47.75 232.506 47.75C231.504 47.75 230.691 48.9316 230.691 50.3892C230.691 51.8468 231.504 53.0285 232.506 53.0285Z" fill="#E2271E"/>
<path d="M236.359 72.3976L254.862 71.4453C254.862 71.4453 254.017 77.1846 245.767 77.6114C245.767 77.6114 238.903 77.9645 236.359 72.3976Z" fill="#FF5745"/>
<path d="M257.441 53.0285C258.443 53.0285 259.255 51.8468 259.255 50.3892C259.255 48.9316 258.443 47.75 257.441 47.75C256.439 47.75 255.627 48.9316 255.627 50.3892C255.627 51.8468 256.439 53.0285 257.441 53.0285Z" fill="#E2271E"/>
<path d="M245.174 78.6678C241.992 78.6624 238.934 77.4377 236.627 75.2456C234.321 73.0536 232.942 70.0609 232.775 66.8833C232.761 66.6072 232.857 66.3367 233.042 66.1314C233.227 65.9261 233.486 65.8028 233.763 65.7886L256.492 64.618C256.767 64.607 257.037 64.7026 257.244 64.885C257.345 64.9767 257.428 65.0876 257.487 65.2113C257.546 65.3349 257.58 65.469 257.586 65.6058C257.752 68.8954 256.606 72.1164 254.4 74.5622C252.194 77.0079 249.107 78.4787 245.818 78.6518C245.603 78.6624 245.389 78.6678 245.174 78.6678ZM234.963 67.8147C235.351 70.3462 236.665 72.6434 238.651 74.2608C240.636 75.8783 243.152 76.7007 245.71 76.5686C248.268 76.4357 250.686 75.3589 252.496 73.5466C254.306 71.7343 255.38 69.3151 255.51 66.7568L234.963 67.8147Z" fill="#E2271E"/>
<path d="M225.566 46.1534C225.368 46.1533 225.174 46.097 225.007 45.9911C224.84 45.8851 224.707 45.7339 224.623 45.555C224.539 45.3761 224.507 45.1769 224.532 44.9808C224.556 44.7846 224.636 44.5995 224.762 44.447C227.173 41.5318 233.257 37.1577 239.02 41.4581C239.13 41.5403 239.222 41.6432 239.292 41.761C239.362 41.8789 239.408 42.0093 239.427 42.1448C239.446 42.2803 239.439 42.4184 239.405 42.551C239.371 42.6836 239.311 42.8083 239.229 42.9178C239.147 43.0274 239.044 43.1196 238.926 43.1894C238.808 43.2592 238.678 43.305 238.542 43.3244C238.407 43.3438 238.269 43.3362 238.136 43.3023C238.003 43.2683 237.879 43.2085 237.769 43.1263C232.158 38.9336 226.599 45.4896 226.365 45.7718C226.268 45.8902 226.146 45.9858 226.008 46.0517C225.87 46.1177 225.719 46.1524 225.566 46.1534Z" fill="#E2271E"/>
<path d="M252.84 45.5501C252.621 45.5501 252.407 45.4813 252.23 45.3533C252.052 45.2254 251.92 45.0448 251.85 44.8372C251.781 44.6296 251.779 44.4055 251.844 44.1966C251.91 43.9878 252.039 43.8047 252.214 43.6734C255.219 41.429 258.668 41.2594 262.188 43.1834C262.431 43.316 262.611 43.5396 262.689 43.805C262.767 44.0704 262.736 44.3559 262.603 44.5986C262.471 44.8413 262.247 45.0213 261.982 45.0992C261.716 45.177 261.431 45.1462 261.188 45.0135C258.399 43.4844 255.798 43.5991 253.461 45.3451C253.281 45.4787 253.063 45.5507 252.84 45.5501Z" fill="#E2271E"/>
<path d="M244.598 62.0013C244.332 62.0001 244.076 61.8971 243.884 61.7134C243.691 61.5297 243.576 61.2792 243.562 61.0134C243.548 60.7475 243.636 60.4864 243.809 60.2835C243.981 60.0807 244.225 59.9514 244.489 59.9223C244.524 59.9182 247.73 59.5748 250.045 59.1682C249.628 58.1603 247.84 55.8686 245.846 53.8418C245.743 53.7458 245.66 53.63 245.603 53.5012C245.546 53.3724 245.515 53.2333 245.513 53.0924C245.511 52.9514 245.538 52.8116 245.591 52.6812C245.645 52.5509 245.724 52.4327 245.825 52.334C245.926 52.2352 246.045 52.1578 246.176 52.1066C246.308 52.0553 246.448 52.0312 246.589 52.0357C246.73 52.0402 246.868 52.0732 246.996 52.1327C247.124 52.1923 247.238 52.2771 247.332 52.3821C249.826 54.9157 252.684 58.3014 252.141 60.0419C252.048 60.3289 251.877 60.5843 251.647 60.7792C251.417 60.9741 251.137 61.1008 250.839 61.145C248.43 61.6017 244.861 61.9791 244.71 61.9979C244.673 62.0011 244.635 62.0022 244.598 62.0013Z" fill="#E2271E"/>
<path d="M210.716 65.5019H203.681C203.465 65.5016 203.255 65.4346 203.08 65.3101C202.904 65.1857 202.771 65.0099 202.699 64.8068C202.442 64.0888 196.483 47.0822 202.769 35.8086C202.859 35.6464 202.991 35.5113 203.151 35.4172C203.311 35.3231 203.494 35.2735 203.679 35.2734H225.565C225.743 35.2736 225.917 35.3191 226.072 35.4058C226.228 35.4924 226.358 35.6173 226.451 35.7686C226.545 35.9199 226.598 36.0925 226.606 36.2701C226.614 36.4476 226.576 36.6243 226.496 36.7832C224.199 41.3707 223.476 46.5874 224.441 51.6267C224.47 51.7774 224.465 51.9327 224.427 52.0814C224.389 52.2302 224.318 52.3686 224.22 52.4869C224.123 52.6053 224 52.7005 223.861 52.7659C223.722 52.8313 223.571 52.8653 223.417 52.8653H220.632C220.457 52.8652 220.285 52.8214 220.132 52.7377C219.979 52.654 219.849 52.5331 219.755 52.3862C219.661 52.2394 219.605 52.0712 219.592 51.897C219.58 51.7229 219.611 51.5484 219.684 51.3896C219.691 51.3723 220.594 49.3155 219.747 47.8447C219.206 46.9064 218.009 46.3336 216.183 46.1438C215.907 46.1153 215.655 45.9786 215.481 45.7638C215.306 45.5491 215.224 45.2738 215.253 44.9987C215.281 44.7236 215.418 44.471 215.633 44.2967C215.848 44.1223 216.123 44.0404 216.398 44.069C218.934 44.3338 220.671 45.2583 221.562 46.8174C221.719 47.0925 221.846 47.3832 221.943 47.6848C221.881 44.1412 222.56 40.6238 223.937 37.358H204.306C199.595 46.5894 203.424 60.2082 204.435 63.4125H209.843L211.079 56.5479C211.128 56.2757 211.283 56.0341 211.51 55.8763C211.737 55.7185 212.018 55.6574 212.29 55.7065C212.562 55.7555 212.804 55.9106 212.961 56.1378C213.119 56.3649 213.18 56.6454 213.131 56.9176L211.741 64.64C211.699 64.8811 211.573 65.0996 211.385 65.2571C211.198 65.4147 210.961 65.5014 210.716 65.5019ZM222.039 50.7835H222.189C222.166 50.6195 222.144 50.4554 222.125 50.2914C222.101 50.4631 222.071 50.6278 222.039 50.7835Z" fill="#E2271E"/>
<path d="M261.423 37.3632H203.681C203.468 37.3631 203.259 37.2976 203.085 37.1756C202.91 37.0535 202.776 36.8807 202.703 36.6806C202.629 36.4804 202.619 36.2625 202.673 36.0562C202.727 35.8498 202.843 35.6651 203.005 35.5268C203.661 34.9707 219.665 21.8712 269.638 25.4105C270.504 25.4717 273.138 25.658 273.512 27.5C274.126 30.5152 266.498 34.9026 261.896 37.2492C261.75 37.3242 261.587 37.3633 261.423 37.3632ZM207.288 35.278H261.171C266.601 32.4823 271.331 29.1119 271.464 27.9441C271.36 27.86 270.921 27.5917 269.491 27.4902C231.896 24.8302 213.786 31.7991 207.288 35.278Z" fill="#E2271E"/>
<path d="M218.323 26.8967C218.284 26.8967 218.245 26.8946 218.207 26.8905C218.071 26.8753 217.939 26.8335 217.819 26.7675C217.699 26.7014 217.593 26.6123 217.508 26.5054C217.422 26.3984 217.358 26.2757 217.32 26.1441C217.282 26.0126 217.271 25.8748 217.286 25.7387C217.716 21.6967 219.188 17.8354 221.556 14.5319C223.925 11.2284 227.11 8.59571 230.8 6.89084C231.056 6.78567 231.343 6.78642 231.598 6.89292C231.854 6.99942 232.056 7.20294 232.161 7.45872C232.266 7.71451 232.266 8.00159 232.159 8.25682C232.053 8.51206 231.849 8.71453 231.593 8.8197C228.249 10.3812 225.365 12.7809 223.221 15.7858C221.078 18.7907 219.748 22.2988 219.36 25.9695C219.331 26.2245 219.21 26.4601 219.019 26.6311C218.828 26.8022 218.58 26.8968 218.323 26.8967Z" fill="#E2271E"/>
<path d="M226.016 106.757C225.17 106.755 224.335 106.568 223.568 106.21C218.802 103.998 214.952 100.2 212.675 95.4644C210.399 90.7291 209.837 85.3501 211.085 80.2464L212.25 75.5198C212.295 75.3339 212.392 75.1642 212.527 75.0293C212.663 74.8944 212.834 74.7995 213.02 74.755C213.206 74.7106 213.401 74.7183 213.583 74.7773C213.765 74.8363 213.928 74.9444 214.053 75.0896C214.156 75.2098 224.49 87.0763 237.235 86.2477C237.419 86.2344 237.603 86.2709 237.768 86.3532C237.933 86.4355 238.072 86.5606 238.172 86.7155C238.273 86.8692 238.332 87.047 238.342 87.2307C238.352 87.4144 238.314 87.5976 238.23 87.7616L231.766 100.455C231.834 101.253 231.736 102.057 231.479 102.815C231.221 103.574 230.81 104.271 230.27 104.864C229.73 105.456 229.074 105.93 228.342 106.256C227.61 106.583 226.819 106.754 226.018 106.76L226.016 106.757ZM213.816 77.8727L213.109 80.7448C211.976 85.3781 212.486 90.2614 214.552 94.5606C216.619 98.8598 220.114 102.308 224.44 104.317C225.046 104.597 225.717 104.709 226.381 104.639C227.045 104.569 227.678 104.321 228.213 103.921C228.747 103.521 229.164 102.983 229.418 102.366C229.672 101.748 229.755 101.073 229.657 100.413C229.625 100.199 229.66 99.98 229.759 99.7873L235.576 88.3684C225.274 88.2023 216.966 81.0158 213.816 77.8727Z" fill="#E2271E"/>
<path d="M242.651 17.8962C242.434 17.8962 242.223 17.8285 242.046 17.7025C241.869 17.5766 241.737 17.3986 241.666 17.1935C240.417 13.6731 237.968 10.7051 234.748 8.81079C234.507 8.68238 234.326 8.4643 234.243 8.2035C234.161 7.94271 234.185 7.66008 234.309 7.41652C234.433 7.17295 234.648 6.98793 234.908 6.90133C235.167 6.81473 235.45 6.83348 235.696 6.95353C239.411 9.07691 242.231 12.473 243.637 16.5144C243.691 16.6714 243.707 16.839 243.683 17.0033C243.659 17.1676 243.596 17.3239 243.5 17.459C243.404 17.5942 243.276 17.7044 243.129 17.7804C242.981 17.8565 242.817 17.8962 242.651 17.8962Z" fill="#E2271E"/>
<path d="M244.773 24.6548C244.531 24.6545 244.296 24.5699 244.11 24.4155C243.923 24.2612 243.796 24.0467 243.75 23.8089L243.231 21.105C243.186 20.8367 243.248 20.5614 243.403 20.3381C243.559 20.1147 243.795 19.9609 244.062 19.9094C244.329 19.858 244.606 19.913 244.833 20.0628C245.06 20.2125 245.22 20.4451 245.278 20.7109L245.797 23.4155C245.849 23.6869 245.792 23.968 245.637 24.1969C245.482 24.4257 245.242 24.5837 244.971 24.6361C244.906 24.6484 244.839 24.6547 244.773 24.6548Z" fill="#E2271E"/>
<path d="M236.358 73.4373C236.082 73.4443 235.814 73.3412 235.613 73.1506C235.413 72.9601 235.296 72.6976 235.289 72.4211C235.282 72.1446 235.386 71.8766 235.576 71.6761C235.767 71.4756 236.029 71.3591 236.306 71.3521L254.809 70.3998C255.085 70.3856 255.356 70.4819 255.562 70.6674C255.767 70.8528 255.891 71.1124 255.905 71.3889C255.919 71.6654 255.823 71.9363 255.637 72.1418C255.452 72.3474 255.192 72.4709 254.916 72.4851L236.413 73.4373C236.395 73.4373 236.376 73.4373 236.358 73.4373Z" fill="#E2271E"/>
<path d="M235.395 171.816C235.119 171.819 234.852 171.713 234.654 171.52C234.456 171.326 234.343 171.063 234.34 170.786C234.337 170.51 234.443 170.243 234.636 170.045C234.829 169.847 235.093 169.734 235.37 169.731C241.721 169.567 263.312 167.896 274.496 153.205C276.74 150.258 280.915 144.772 280.912 137C280.982 132.577 279.67 128.241 277.159 124.599C275.185 121.658 272.865 118.965 270.249 116.578C270.035 116.402 269.899 116.149 269.871 115.874C269.844 115.599 269.926 115.324 270.102 115.11C270.277 114.895 270.53 114.759 270.805 114.732C271.08 114.704 271.355 114.787 271.57 114.962C273.562 116.587 276.429 119.901 278.872 123.405C281.629 127.397 283.071 132.149 282.998 136.999C282.998 145.476 278.377 151.549 276.156 154.468C264.409 169.899 242.01 171.646 235.424 171.814L235.395 171.816Z" fill="#E2271E"/>
<path d="M223.016 156.099C222.742 156.099 222.48 155.992 222.285 155.8C222.09 155.609 221.978 155.348 221.973 155.075C221.847 147.743 222.517 138.784 226.429 137.735C227.269 137.512 229.175 137.401 230.384 138.59C231.313 139.502 231.301 140.611 231.288 141.894C231.288 142.19 231.281 142.509 231.288 142.858C231.351 146.134 232.132 148.94 233.487 150.761C234 151.442 234.617 152.038 235.315 152.526C239.031 152.572 250.398 151.828 259.448 142.594C264.539 137.399 263.383 132.978 261.581 129.339C261.46 129.091 261.443 128.806 261.532 128.546C261.62 128.285 261.809 128.07 262.055 127.948C262.302 127.826 262.587 127.806 262.848 127.893C263.109 127.98 263.325 128.167 263.449 128.413C265.296 132.144 267.045 137.822 260.937 144.052C251.041 154.151 238.555 154.683 234.963 154.606C234.767 154.601 234.576 154.541 234.412 154.434C233.411 153.781 232.532 152.96 231.814 152.006C230.178 149.806 229.276 146.653 229.203 142.9C229.196 142.528 229.203 142.187 229.203 141.873C229.216 140.761 229.195 140.343 228.925 140.079C228.642 139.886 228.32 139.758 227.983 139.701C227.646 139.645 227.3 139.662 226.97 139.751C225.398 140.172 223.887 145.064 224.06 155.04C224.062 155.177 224.037 155.313 223.987 155.44C223.937 155.567 223.862 155.684 223.767 155.782C223.672 155.881 223.558 155.96 223.433 156.014C223.307 156.069 223.172 156.098 223.035 156.1L223.016 156.099Z" fill="#E2271E"/>
<path d="M201.546 116.812C201.396 116.812 201.248 116.78 201.112 116.718C200.976 116.656 200.855 116.566 200.757 116.453C198.001 113.276 195.051 110.042 192.199 106.914C189.335 103.772 186.373 100.524 183.597 97.3248C183.419 97.1157 183.33 96.8445 183.351 96.5703C183.371 96.2961 183.499 96.0412 183.707 95.8609C183.914 95.6806 184.185 95.5896 184.459 95.6077C184.733 95.6259 184.989 95.7516 185.171 95.9576C187.931 99.1383 190.884 102.376 193.74 105.508C196.596 108.64 199.56 111.89 202.332 115.086C202.463 115.237 202.548 115.423 202.577 115.621C202.605 115.818 202.576 116.02 202.494 116.202C202.411 116.384 202.277 116.538 202.109 116.646C201.941 116.754 201.745 116.812 201.546 116.812Z" fill="#E2271E"/>
<path d="M184.95 97.6826C184.761 97.6824 184.576 97.6311 184.415 97.5341C184.253 97.4371 184.12 97.298 184.031 97.1316C183.942 96.9652 183.9 96.7779 183.909 96.5894C183.919 96.401 183.979 96.2186 184.083 96.0616C184.965 94.7384 185.765 93.3619 186.476 91.9398C190.438 84.027 191.63 74.5356 189.932 64.4896C189.897 64.2782 189.927 64.0609 190.019 63.8674C190.112 63.6739 190.261 63.5135 190.448 63.4081C190.635 63.3027 190.849 63.2575 191.063 63.2785C191.276 63.2995 191.478 63.3857 191.64 63.5255C201.401 71.9151 204.694 75.2939 212.183 86.7677C212.332 86.9992 212.384 87.2805 212.326 87.55C212.269 87.8195 212.107 88.0554 211.877 88.206C211.646 88.3567 211.365 88.4098 211.095 88.3539C210.825 88.298 210.589 88.1375 210.437 87.9076C203.661 77.5251 200.386 73.901 192.39 66.9307C193.512 76.3838 192.128 85.3024 188.342 92.8726C187.591 94.3718 186.748 95.8231 185.818 97.2183C185.723 97.3612 185.594 97.4783 185.442 97.5593C185.291 97.6403 185.122 97.6827 184.95 97.6826Z" fill="#E2271E"/>
<path d="M124.1 51.4337C123.912 51.4339 123.727 51.3832 123.566 51.2869C123.404 51.1906 123.271 51.0523 123.182 50.8866C122.983 50.521 118.192 41.9694 107.357 45.2314C107.225 45.2709 107.088 45.2841 106.952 45.2703C106.815 45.2566 106.683 45.2161 106.563 45.1513C106.442 45.0865 106.335 44.9985 106.249 44.8925C106.162 44.7864 106.097 44.6643 106.058 44.5332C106.018 44.4021 106.005 44.2645 106.019 44.1283C106.033 43.992 106.073 43.8598 106.138 43.7392C106.203 43.6186 106.291 43.512 106.397 43.4254C106.503 43.3388 106.625 43.2739 106.756 43.2345C119.25 39.4741 124.961 49.7933 125.017 49.8975C125.103 50.0562 125.145 50.2344 125.141 50.4145C125.137 50.5946 125.086 50.7707 124.994 50.9254C124.902 51.0801 124.771 51.2083 124.614 51.2973C124.458 51.3864 124.281 51.4334 124.1 51.4337Z" fill="#E2271E"/>
<path d="M187.409 93.4507C187.247 93.4507 187.088 93.413 186.943 93.3406C186.798 93.2682 186.672 93.1631 186.575 93.0336C182.345 87.3798 172.534 78.4835 158.82 72.0199C145.856 65.9115 132.962 65.2199 120.498 69.9694C119.578 71.1559 116.008 75.4605 112.544 75.6162L112.207 75.6295C111.886 75.6413 111.566 75.651 111.247 75.6892C110.089 75.8282 107.907 75.8394 106.294 74.3804C105.575 73.7229 105.056 72.8751 104.798 71.9351C104.756 71.8026 104.742 71.6632 104.755 71.5249C104.768 71.3867 104.808 71.2525 104.874 71.1302C104.94 71.0079 105.029 70.8999 105.137 70.8126C105.245 70.7253 105.369 70.6605 105.503 70.6219C105.636 70.5833 105.776 70.5717 105.914 70.5878C106.052 70.6039 106.185 70.6474 106.306 70.7158C106.427 70.7841 106.533 70.8759 106.617 70.9857C106.702 71.0955 106.765 71.2212 106.8 71.3554C106.947 71.9247 107.257 72.4386 107.693 72.8338C108.694 73.7374 110.195 73.711 111.001 73.6186C111.391 73.572 111.766 73.5581 112.132 73.5491L112.451 73.5366C114.837 73.4309 117.994 69.8526 119.009 68.4854C119.127 68.3272 119.287 68.2055 119.47 68.1344C132.574 63.0547 146.112 63.7296 159.709 70.1376C172.737 76.2766 182.361 84.6044 187.186 90.4444C190.513 82.9949 191.424 74.6904 189.79 66.6969C175.29 54.7637 152.26 42.5365 124.416 51.3905C124.153 51.4743 123.867 51.45 123.621 51.3229C123.376 51.1958 123.191 50.9763 123.107 50.7128C123.023 50.4493 123.047 50.1633 123.175 49.9177C123.302 49.6721 123.521 49.487 123.785 49.4033C152.706 40.208 176.518 52.985 191.402 65.3248C191.583 65.4749 191.709 65.6822 191.757 65.9129C193.706 75.0282 192.503 84.5354 188.343 92.8772C188.264 93.0367 188.145 93.1731 187.998 93.2737C187.851 93.3742 187.681 93.4354 187.504 93.4514C187.472 93.4509 187.441 93.4507 187.409 93.4507Z" fill="#E2271E"/>
<path d="M96.9852 59.5849C96.8187 59.5851 96.6546 59.5453 96.5066 59.469C96.3585 59.3927 96.2309 59.2821 96.1345 59.1463C94.59 56.9735 95.3546 53.5162 95.5089 52.9031C96.8351 44.2111 109.123 42.7271 109.648 42.668C109.918 42.6444 110.188 42.7276 110.398 42.8997C110.609 43.0719 110.743 43.3194 110.774 43.5895C110.804 43.8597 110.728 44.131 110.562 44.3458C110.395 44.5606 110.151 44.7018 109.882 44.7393C109.769 44.7525 98.6138 46.1093 97.5636 53.2597C97.558 53.2972 97.5504 53.3347 97.5413 53.3709C97.3238 54.2182 96.9519 56.6941 97.836 57.9383C97.9468 58.0942 98.0126 58.2775 98.0262 58.4683C98.0398 58.6591 98.0006 58.85 97.913 59.02C97.8253 59.19 97.6926 59.3326 97.5294 59.4323C97.3661 59.5319 97.1786 59.5847 96.9873 59.5849H96.9852Z" fill="#E2271E"/>
<path d="M97.726 65.4952C97.5595 65.4954 97.3953 65.4557 97.2473 65.3794C97.0993 65.303 96.9717 65.1924 96.8752 65.0566C95.3301 62.8838 96.0946 59.4265 96.2497 58.8127C97.5766 50.1242 109.865 48.6374 110.388 48.5783C110.659 48.5542 110.929 48.6371 111.14 48.8092C111.351 48.9813 111.486 49.229 111.517 49.4993C111.547 49.7697 111.471 50.0414 111.304 50.2563C111.137 50.4712 110.893 50.6124 110.623 50.6497C110.51 50.6629 99.3553 52.0197 98.3043 59.17C98.2994 59.2075 98.2919 59.2447 98.2821 59.2812C98.0645 60.1285 97.6926 62.6044 98.5775 63.8486C98.6883 64.0045 98.7541 64.1879 98.7677 64.3787C98.7812 64.5694 98.742 64.7603 98.6544 64.9303C98.5668 65.1003 98.4341 65.2429 98.2708 65.3426C98.1076 65.4422 97.9201 65.495 97.7288 65.4952H97.726Z" fill="#E2271E"/>
<path d="M99.0463 71.4559C98.8798 71.456 98.7156 71.4163 98.5676 71.34C98.4196 71.2637 98.292 71.153 98.1955 71.0173C96.6504 68.8437 97.415 65.3871 97.57 64.774C98.8962 56.0813 111.185 54.598 111.709 54.5389C111.979 54.5159 112.248 54.5993 112.458 54.7715C112.668 54.9437 112.803 55.1911 112.833 55.461C112.864 55.7308 112.788 56.002 112.621 56.2166C112.455 56.4312 112.211 56.5725 111.942 56.6103C111.83 56.6235 100.675 57.9796 99.6246 65.1306C99.6191 65.1681 99.6114 65.2057 99.6024 65.2425C99.3848 66.0891 99.0123 68.565 99.8971 69.8092C100.008 69.9652 100.074 70.1488 100.087 70.3398C100.101 70.5308 100.061 70.7217 99.9736 70.8918C99.8857 71.0619 99.7527 71.2045 99.5891 71.304C99.4256 71.4035 99.2378 71.456 99.0463 71.4559Z" fill="#E2271E"/>
<path d="M103.509 77.1244C102.761 77.1221 102.021 76.9681 101.334 76.6719C100.205 76.2106 99.2693 75.3737 98.6854 74.3025C98.1014 73.2313 97.9051 71.9914 98.1294 70.7921C98.1836 70.4821 98.2351 70.2583 98.2594 70.1582C99.5801 61.4627 111.875 59.9794 112.399 59.9203C112.673 59.8901 112.948 59.9699 113.164 60.1422C113.38 60.3145 113.518 60.5653 113.549 60.8396C113.58 61.1138 113.501 61.3892 113.329 61.6053C113.158 61.8214 112.907 61.9606 112.633 61.9924C112.52 62.0049 101.365 63.361 100.315 70.5127C100.309 70.5496 100.302 70.5864 100.293 70.6232C100.288 70.6392 100.238 70.8387 100.183 71.1529C100.06 71.8865 100.187 72.6403 100.544 73.293C100.9 73.9458 101.466 74.4595 102.151 74.7517C102.835 75.0438 103.597 75.0973 104.315 74.9036C105.034 74.7099 105.666 74.2802 106.11 73.6837L106.205 73.553C106.282 73.4372 106.381 73.338 106.498 73.2612C106.614 73.1844 106.744 73.1316 106.88 73.106C107.017 73.0803 107.158 73.0823 107.294 73.1117C107.43 73.1412 107.558 73.1976 107.672 73.2776C107.786 73.3575 107.883 73.4595 107.957 73.5774C108.03 73.6953 108.08 73.8268 108.102 73.9642C108.124 74.1015 108.119 74.2419 108.086 74.3771C108.053 74.5123 107.993 74.6395 107.911 74.7513L107.794 74.9147C107.306 75.5965 106.663 76.1525 105.918 76.5367C105.173 76.921 104.348 77.1224 103.509 77.1244Z" fill="#E2271E"/>
<path d="M223.69 180.315C223.534 180.315 223.377 180.312 223.218 180.305C223.081 180.299 222.947 180.265 222.823 180.207C222.699 180.149 222.587 180.067 222.495 179.966C222.403 179.865 222.331 179.747 222.285 179.618C222.238 179.489 222.217 179.352 222.224 179.216C222.227 179.078 222.258 178.942 222.315 178.817C222.372 178.692 222.454 178.579 222.556 178.486C222.657 178.393 222.777 178.322 222.907 178.277C223.037 178.231 223.175 178.212 223.312 178.222C223.433 178.227 223.554 178.23 223.674 178.23C231.514 178.23 235.264 166.557 235.301 166.437C235.384 166.173 235.568 165.953 235.814 165.825C236.059 165.697 236.345 165.672 236.609 165.755C236.873 165.838 237.093 166.022 237.221 166.268C237.349 166.513 237.374 166.799 237.291 167.063C237.119 167.611 233.027 180.315 223.69 180.315Z" fill="#E2271E"/>
<path d="M222.495 180.323C219.587 180.323 210.053 179.762 207.683 172.556C207.432 171.979 206.105 168.694 207.266 166.295C207.387 166.046 207.601 165.855 207.863 165.765C208.124 165.674 208.411 165.691 208.659 165.811C208.908 165.932 209.099 166.147 209.19 166.408C209.28 166.669 209.264 166.956 209.143 167.205C208.476 168.58 209.276 171.014 209.609 171.758C209.625 171.792 209.638 171.827 209.65 171.863C211.874 178.745 223.1 178.227 223.21 178.223C223.485 178.212 223.753 178.309 223.958 178.493C224.163 178.678 224.288 178.934 224.306 179.209C224.321 179.485 224.226 179.755 224.041 179.961C223.856 180.167 223.598 180.291 223.322 180.306C223.251 180.306 222.956 180.323 222.495 180.323Z" fill="#E2271E"/>
<path d="M222.243 174.371C219.337 174.371 209.805 173.81 207.432 166.603C207.181 166.025 205.853 162.741 207.015 160.342C207.136 160.093 207.35 159.902 207.611 159.812C207.741 159.767 207.878 159.748 208.014 159.756C208.151 159.764 208.285 159.799 208.408 159.858C208.531 159.918 208.642 160.002 208.733 160.104C208.824 160.206 208.894 160.326 208.938 160.455C208.983 160.584 209.002 160.721 208.994 160.858C208.986 160.995 208.951 161.128 208.892 161.252C208.226 162.625 209.003 165.005 209.359 165.805C209.374 165.839 209.387 165.875 209.399 165.91C211.62 172.791 222.848 172.275 222.959 172.27C223.236 172.255 223.507 172.351 223.713 172.536C223.919 172.721 224.043 172.98 224.058 173.257C224.073 173.533 223.977 173.804 223.792 174.01C223.607 174.216 223.348 174.341 223.071 174.355C223 174.357 222.702 174.371 222.243 174.371Z" fill="#E2271E"/>
<path d="M222.558 168.272C219.65 168.272 210.12 167.711 207.748 160.505C207.497 159.927 206.169 156.644 207.331 154.244C207.452 153.995 207.666 153.805 207.928 153.714C208.189 153.623 208.476 153.64 208.725 153.761C208.973 153.881 209.164 154.096 209.255 154.357C209.345 154.619 209.329 154.905 209.208 155.154C208.542 156.528 209.321 158.907 209.676 159.708C209.691 159.742 209.704 159.778 209.716 159.812C211.94 166.707 223.161 166.18 223.275 166.172C223.552 166.158 223.823 166.253 224.029 166.438C224.235 166.623 224.359 166.882 224.374 167.159C224.389 167.435 224.293 167.706 224.108 167.913C223.923 168.119 223.664 168.243 223.388 168.258C223.315 168.259 223.021 168.272 222.558 168.272Z" fill="#E2271E"/>
<path d="M222.348 162.852C219.441 162.852 209.906 162.291 207.535 155.081C207.496 154.987 207.408 154.775 207.303 154.479C206.902 153.333 206.899 152.084 207.295 150.936C207.691 149.788 208.463 148.806 209.486 148.151C210.508 147.495 211.722 147.204 212.931 147.323C214.14 147.442 215.273 147.966 216.148 148.809L216.294 148.953C216.467 149.13 216.572 149.363 216.59 149.61C216.59 149.637 216.836 152.561 218.676 153.816C219.672 154.495 221.028 154.58 222.707 154.062C222.971 153.983 223.254 154.011 223.497 154.141C223.74 154.271 223.921 154.491 224.002 154.754C224.083 155.016 224.057 155.301 223.929 155.544C223.802 155.788 223.583 155.971 223.321 156.054C221 156.769 219.038 156.592 217.49 155.531C215.308 154.037 214.709 151.241 214.557 150.179C214.003 149.705 213.309 149.427 212.582 149.386C211.855 149.346 211.135 149.547 210.533 149.957C209.931 150.367 209.48 150.963 209.251 151.655C209.022 152.346 209.027 153.094 209.266 153.782C209.373 154.084 209.455 154.269 209.463 154.29C209.477 154.322 209.491 154.359 209.502 154.392C211.726 161.273 222.951 160.757 223.062 160.752C223.337 160.743 223.605 160.84 223.809 161.024C224.014 161.208 224.139 161.464 224.158 161.738C224.173 162.014 224.078 162.285 223.893 162.49C223.709 162.696 223.45 162.82 223.174 162.835C223.105 162.838 222.809 162.852 222.348 162.852Z" fill="#E2271E"/>
<path d="M208.882 200.43C208.81 200.43 208.738 200.422 208.667 200.408C189.265 196.354 173.177 180.624 172.501 179.956C172.366 179.822 172.269 179.653 172.223 179.468C172.176 179.283 172.182 179.089 172.238 178.907L191.7 115.841C191.782 115.576 191.965 115.355 192.209 115.226C192.454 115.097 192.74 115.07 193.004 115.152C193.268 115.233 193.489 115.417 193.619 115.661C193.748 115.906 193.774 116.192 193.693 116.456L174.42 178.905C177.174 181.483 192.059 194.808 209.092 198.367C209.344 198.419 209.569 198.563 209.721 198.771C209.874 198.979 209.944 199.236 209.918 199.493C209.892 199.75 209.772 199.988 209.581 200.161C209.39 200.334 209.141 200.43 208.883 200.431L208.882 200.43Z" fill="#E2271E"/>
<path d="M221.069 148.654C220.807 148.654 220.555 148.555 220.363 148.377C220.17 148.199 220.052 147.955 220.032 147.694L217.898 120.459C217.879 120.219 217.943 119.981 218.08 119.783C218.217 119.586 218.418 119.442 218.649 119.375L265.715 105.827C265.884 105.778 266.063 105.772 266.234 105.81C266.406 105.849 266.566 105.93 266.697 106.047C266.829 106.164 266.929 106.312 266.988 106.478C267.048 106.644 267.064 106.822 267.035 106.996C264.927 120.001 261.812 139.792 261.778 141.611C261.818 141.846 261.776 142.087 261.659 142.294C261.543 142.502 261.359 142.663 261.138 142.752C260.917 142.84 260.672 142.85 260.445 142.781C260.217 142.711 260.021 142.566 259.887 142.369C259.589 141.928 259.331 141.549 264.714 108.287L220.046 121.146L222.113 147.533C222.134 147.809 222.045 148.082 221.866 148.292C221.686 148.502 221.43 148.632 221.155 148.654C221.126 148.655 221.098 148.656 221.069 148.654Z" fill="#E2271E"/>
<path d="M215.55 150.726C215.344 150.726 215.143 150.665 214.972 150.551C214.8 150.437 214.667 150.275 214.587 150.085L202.719 121.717C202.637 121.52 202.617 121.304 202.662 121.095C202.707 120.887 202.814 120.698 202.97 120.553C203.126 120.407 203.322 120.313 203.533 120.283C203.744 120.253 203.959 120.288 204.149 120.383L207.976 122.306L210.409 118.131C210.485 118.001 210.588 117.889 210.711 117.802C210.834 117.716 210.975 117.657 211.123 117.63C211.271 117.603 211.423 117.609 211.569 117.646C211.715 117.683 211.851 117.752 211.967 117.847L215.475 120.701L218.534 119.416C218.789 119.308 219.076 119.307 219.332 119.412C219.588 119.516 219.792 119.718 219.899 119.973C220.006 120.228 220.008 120.515 219.903 120.771C219.798 121.027 219.596 121.231 219.342 121.338L215.707 122.867C215.533 122.94 215.342 122.965 215.155 122.938C214.968 122.911 214.792 122.834 214.646 122.715L211.598 120.236L209.286 124.204C209.152 124.433 208.936 124.603 208.682 124.679C208.427 124.754 208.154 124.73 207.916 124.611L205.731 123.512L216.511 149.282C216.577 149.44 216.604 149.613 216.587 149.783C216.571 149.954 216.513 150.119 216.418 150.262C216.323 150.405 216.194 150.522 216.042 150.603C215.891 150.684 215.722 150.727 215.551 150.727L215.55 150.726Z" fill="#E2271E"/>
<path d="M236.358 211.567C236.278 211.567 236.197 211.558 236.119 211.539L207.35 204.745C207.212 204.713 207.081 204.652 206.967 204.567C206.853 204.482 206.757 204.375 206.686 204.251C206.615 204.128 206.57 203.991 206.554 203.85C206.537 203.709 206.55 203.565 206.591 203.429L208.129 198.331C208.209 198.066 208.391 197.844 208.635 197.713C208.878 197.583 209.164 197.554 209.429 197.634C209.694 197.714 209.916 197.896 210.047 198.14C210.177 198.383 210.206 198.669 210.126 198.934L208.908 202.97L234.703 209.063L223.777 179.64C223.73 179.512 223.708 179.376 223.713 179.239C223.718 179.102 223.75 178.967 223.807 178.843C223.864 178.718 223.945 178.606 224.045 178.513C224.146 178.42 224.263 178.347 224.392 178.3C224.52 178.252 224.657 178.23 224.794 178.235C224.93 178.24 225.065 178.272 225.19 178.329C225.314 178.386 225.426 178.467 225.519 178.568C225.612 178.668 225.685 178.786 225.733 178.914L237.336 210.162C237.394 210.319 237.414 210.489 237.393 210.656C237.371 210.822 237.31 210.982 237.214 211.12C237.118 211.258 236.99 211.371 236.841 211.448C236.692 211.526 236.527 211.567 236.358 211.567Z" fill="#E2271E"/>
<path d="M208.881 200.429C208.775 200.429 208.67 200.413 208.569 200.381C208.305 200.299 208.085 200.115 207.957 199.87C207.829 199.625 207.803 199.339 207.885 199.075L208.456 197.256L214.306 177.863C214.386 177.598 214.568 177.376 214.811 177.245C215.055 177.114 215.341 177.086 215.606 177.166C215.87 177.245 216.093 177.427 216.223 177.671C216.354 177.915 216.383 178.201 216.303 178.465L209.875 199.699C209.809 199.911 209.676 200.096 209.498 200.227C209.319 200.359 209.103 200.429 208.881 200.429Z" fill="#E2271E"/>
<path d="M236.359 211.566C236.129 211.567 235.905 211.492 235.723 211.353C235.54 211.213 235.408 211.017 235.348 210.795C235.289 210.573 235.304 210.337 235.392 210.125C235.48 209.912 235.636 209.735 235.835 209.62L278.635 184.8L263.312 164.001C263.148 163.778 263.079 163.5 263.12 163.226C263.162 162.953 263.31 162.707 263.533 162.543C263.755 162.379 264.034 162.31 264.308 162.351C264.581 162.393 264.827 162.541 264.991 162.764L281.004 184.501C281.09 184.619 281.152 184.753 281.183 184.897C281.214 185.04 281.215 185.188 281.185 185.331C281.155 185.475 281.095 185.61 281.01 185.729C280.924 185.848 280.814 185.947 280.687 186.021L236.881 211.426C236.722 211.518 236.542 211.566 236.359 211.566Z" fill="#E2271E"/>
<path d="M103.736 73.439C103.55 73.4387 103.367 73.3884 103.207 73.2935C103.046 73.1985 102.914 73.0624 102.825 72.8992C102.735 72.736 102.69 72.5517 102.696 72.3655C102.701 72.1792 102.757 71.9979 102.856 71.8403C103.412 70.9124 105.369 68.6617 111.634 67.4954C111.904 67.4493 112.181 67.5112 112.406 67.6678C112.631 67.8244 112.785 68.0631 112.835 68.3323C112.885 68.6015 112.827 68.8796 112.674 69.1065C112.521 69.3335 112.284 69.491 112.016 69.5452C106.275 70.6142 104.87 72.534 104.648 72.908C104.637 72.926 104.61 72.9691 104.598 72.9865C104.502 73.1264 104.373 73.2407 104.223 73.3195C104.073 73.3984 103.906 73.4394 103.736 73.439Z" fill="#E2271E"/>
<path d="M263.007 126.739C262.935 126.739 262.863 126.732 262.793 126.717C262.522 126.66 262.285 126.499 262.134 126.267C261.982 126.036 261.929 125.754 261.986 125.483C262.768 121.657 264.86 118.223 267.901 115.772C269.442 114.561 271.19 113.639 273.06 113.05C268.41 107.891 260.632 102.232 252.595 100.296C243.628 98.1367 232.299 100.318 232.184 100.34C231.912 100.394 231.631 100.337 231.401 100.183C231.172 100.029 231.013 99.7898 230.959 99.5185C230.906 99.2471 230.962 98.9656 231.116 98.736C231.27 98.5063 231.509 98.3472 231.781 98.2938C232.262 98.1999 243.667 96 253.084 98.2694C262.872 100.627 271.41 107.666 275.744 112.977C275.857 113.116 275.933 113.281 275.963 113.458C275.994 113.634 275.978 113.816 275.918 113.985C275.858 114.154 275.756 114.304 275.621 114.422C275.486 114.54 275.322 114.62 275.147 114.657C272.975 115.1 270.936 116.042 269.191 117.408C266.533 119.556 264.706 122.562 264.024 125.91C263.975 126.144 263.848 126.354 263.663 126.505C263.477 126.656 263.246 126.739 263.007 126.739Z" fill="#E2271E"/>
<path d="M273.82 119.7C273.592 119.7 273.369 119.625 273.187 119.486C273.005 119.347 272.874 119.152 272.814 118.931C272.754 118.71 272.768 118.476 272.854 118.264C272.941 118.052 273.094 117.874 273.291 117.758C274.025 117.327 274.914 116.651 274.977 115.882C274.96 115.606 274.889 115.337 274.768 115.089C274.647 114.841 274.478 114.619 274.271 114.437C274.075 114.255 273.956 114.005 273.939 113.738C273.921 113.472 274.007 113.209 274.179 113.003C274.35 112.798 274.594 112.667 274.859 112.636C275.125 112.605 275.392 112.677 275.605 112.838C276.073 113.231 276.446 113.724 276.697 114.281C276.948 114.838 277.071 115.445 277.055 116.055C276.946 117.389 276.035 118.568 274.345 119.559C274.185 119.652 274.005 119.701 273.82 119.7Z" fill="#E2271E"/>
<path d="M184.25 97.4465C184.052 97.4433 183.858 97.3958 183.681 97.3075C182.524 96.7918 182.247 95.3947 183.945 89.1897C183.981 89.0576 184.043 88.9339 184.126 88.8257C184.21 88.7175 184.315 88.6268 184.434 88.559C184.553 88.4911 184.684 88.4473 184.82 88.4301C184.955 88.4129 185.093 88.4227 185.225 88.4588C185.357 88.4949 185.481 88.5566 185.589 88.6405C185.698 88.7244 185.788 88.8288 185.856 88.9477C185.924 89.0667 185.968 89.1978 185.985 89.3336C186.002 89.4695 185.992 89.6074 185.956 89.7395C185.496 91.3086 185.14 92.9066 184.891 94.523C185.178 94.1689 185.446 93.7998 185.694 93.4172C185.767 93.2998 185.863 93.1981 185.976 93.118C186.088 93.0379 186.216 92.9811 186.351 92.9508C186.486 92.9205 186.625 92.9173 186.762 92.9414C186.898 92.9656 187.028 93.0166 187.144 93.0914C187.26 93.1663 187.36 93.2635 187.439 93.3775C187.517 93.4914 187.572 93.6198 187.6 93.7552C187.628 93.8906 187.629 94.0302 187.603 94.1659C187.577 94.3017 187.524 94.4309 187.447 94.546C185.883 96.9753 184.864 97.4465 184.25 97.4465Z" fill="#E2271E"/>
<path d="M203.682 122.357C203.436 122.356 203.198 122.269 203.01 122.11C202.822 121.951 202.696 121.731 202.655 121.488C202.614 121.245 202.66 120.996 202.786 120.784C202.911 120.572 203.107 120.411 203.339 120.33L210.925 117.689L246.361 101.845C246.495 101.785 246.64 101.754 246.786 101.754C246.933 101.754 247.077 101.784 247.211 101.844C247.345 101.904 247.465 101.991 247.563 102.099C247.661 102.208 247.734 102.337 247.779 102.476L248.572 104.934L254.586 103.277C254.722 103.239 254.864 103.23 255.004 103.249C255.143 103.268 255.278 103.315 255.398 103.387C255.519 103.459 255.624 103.555 255.707 103.669C255.79 103.783 255.849 103.913 255.88 104.05L256.444 106.521L265.924 105.792C266.062 105.777 266.202 105.79 266.336 105.831C266.469 105.872 266.593 105.938 266.7 106.028C266.807 106.117 266.895 106.226 266.959 106.35C267.023 106.474 267.061 106.609 267.072 106.748C267.082 106.887 267.065 107.027 267.021 107.159C266.977 107.291 266.907 107.413 266.815 107.517C266.723 107.622 266.611 107.707 266.485 107.768C266.36 107.828 266.224 107.863 266.084 107.87L255.707 108.669C255.457 108.692 255.207 108.623 255.005 108.474C254.803 108.325 254.662 108.108 254.61 107.862L254.089 105.577L248.163 107.21C247.904 107.282 247.627 107.25 247.391 107.123C247.155 106.995 246.976 106.781 246.894 106.526L246.152 104.223L211.736 119.61C211.709 119.622 211.681 119.633 211.653 119.642L204.025 122.3C203.914 122.339 203.799 122.358 203.682 122.357Z" fill="#E2271E"/>
<path d="M112.104 254.052C111.827 254.058 111.56 253.953 111.361 253.761C111.161 253.569 111.046 253.306 111.041 253.029C111.036 252.753 111.141 252.486 111.333 252.286C111.524 252.087 111.787 251.972 112.064 251.967L126.703 251.406C142.172 250.698 157.14 245.699 169.93 236.969C182.719 228.239 192.828 216.121 199.123 201.973C199.177 201.845 199.256 201.729 199.356 201.632C199.455 201.535 199.573 201.458 199.703 201.408C199.833 201.357 199.971 201.333 200.11 201.336C200.249 201.34 200.386 201.371 200.513 201.429C200.64 201.486 200.754 201.568 200.848 201.671C200.943 201.773 201.016 201.893 201.063 202.024C201.111 202.155 201.132 202.294 201.124 202.433C201.117 202.572 201.082 202.708 201.021 202.833C194.568 217.332 184.207 229.75 171.098 238.696C157.989 247.642 142.65 252.764 126.796 253.489L112.144 254.05L112.104 254.052Z" fill="#E2271E"/>
<path d="M101.62 260.655C101.35 260.655 101.09 260.551 100.896 260.364C100.701 260.176 100.587 259.921 100.577 259.651L99.196 222.083C99.191 221.946 99.213 221.81 99.2607 221.681C99.3084 221.553 99.3809 221.435 99.4741 221.335C99.5674 221.235 99.6794 221.154 99.8039 221.097C99.9284 221.04 100.063 221.008 100.2 221.003L110.451 220.626C110.589 220.62 110.726 220.641 110.855 220.688C110.984 220.735 111.102 220.808 111.203 220.901C111.303 220.995 111.384 221.108 111.441 221.233C111.498 221.358 111.529 221.493 111.532 221.63L112.913 259.198C112.918 259.334 112.896 259.471 112.848 259.599C112.8 259.728 112.728 259.845 112.635 259.946C112.541 260.046 112.429 260.127 112.305 260.184C112.18 260.241 112.046 260.273 111.909 260.278L101.657 260.655L101.62 260.655ZM101.319 223.051L102.624 258.535L110.792 258.234L109.488 222.75L101.319 223.051Z" fill="#E2271E"/>
<path d="M103.078 225.073C102.808 225.073 102.549 224.969 102.354 224.782C102.16 224.595 102.045 224.34 102.035 224.07L101.956 221.985C101.951 221.848 101.973 221.711 102.02 221.583C102.068 221.455 102.14 221.337 102.233 221.236C102.327 221.136 102.439 221.055 102.563 220.997C102.688 220.94 102.822 220.908 102.959 220.903C103.096 220.898 103.233 220.92 103.361 220.967C103.49 221.015 103.607 221.088 103.708 221.181C103.808 221.274 103.89 221.386 103.947 221.51C104.004 221.635 104.036 221.77 104.041 221.906L104.12 223.992C104.126 224.129 104.104 224.265 104.056 224.393C104.009 224.522 103.936 224.64 103.843 224.74C103.75 224.84 103.638 224.922 103.514 224.979C103.389 225.036 103.255 225.068 103.118 225.073H103.078Z" fill="#E2271E"/>
<path d="M104.032 250.142C103.763 250.142 103.503 250.038 103.309 249.851C103.115 249.664 103 249.409 102.99 249.139L102.83 244.961C102.825 244.824 102.846 244.688 102.894 244.559C102.941 244.431 103.014 244.313 103.107 244.213C103.2 244.112 103.312 244.031 103.436 243.974C103.561 243.916 103.695 243.884 103.832 243.879C103.97 243.872 104.107 243.892 104.236 243.939C104.366 243.986 104.484 244.058 104.585 244.151C104.686 244.245 104.767 244.358 104.824 244.483C104.88 244.608 104.911 244.744 104.914 244.881L105.074 249.06C105.079 249.196 105.057 249.333 105.009 249.461C104.962 249.59 104.89 249.707 104.796 249.808C104.703 249.908 104.591 249.989 104.467 250.047C104.343 250.104 104.208 250.136 104.071 250.141L104.032 250.142ZM103.554 237.608C103.284 237.608 103.025 237.504 102.831 237.317C102.636 237.13 102.522 236.875 102.512 236.606L102.352 232.428C102.347 232.291 102.369 232.154 102.416 232.026C102.464 231.897 102.536 231.779 102.629 231.679C102.722 231.578 102.834 231.497 102.959 231.44C103.083 231.383 103.218 231.351 103.355 231.345C103.492 231.338 103.63 231.358 103.759 231.404C103.889 231.451 104.007 231.523 104.108 231.617C104.209 231.71 104.29 231.823 104.347 231.949C104.403 232.074 104.433 232.21 104.436 232.348L104.596 236.525C104.601 236.662 104.58 236.799 104.532 236.927C104.485 237.056 104.412 237.173 104.319 237.274C104.226 237.374 104.114 237.456 103.99 237.513C103.865 237.57 103.731 237.602 103.594 237.607L103.554 237.608Z" fill="#E2271E"/>
<path d="M104.431 260.582C104.161 260.582 103.902 260.478 103.708 260.291C103.513 260.103 103.399 259.848 103.389 259.579L103.309 257.494C103.299 257.217 103.398 256.948 103.586 256.745C103.775 256.542 104.035 256.422 104.312 256.411C104.589 256.4 104.858 256.5 105.061 256.688C105.264 256.876 105.384 257.137 105.395 257.414L105.474 259.499C105.479 259.636 105.457 259.772 105.41 259.901C105.362 260.029 105.29 260.147 105.197 260.248C105.104 260.348 104.992 260.429 104.867 260.487C104.743 260.544 104.608 260.576 104.472 260.581L104.431 260.582Z" fill="#E2271E"/>
<path d="M111.772 233.366C111.178 233.366 110.863 233.354 110.863 233.354C110.586 233.342 110.325 233.222 110.138 233.018C109.95 232.815 109.851 232.545 109.862 232.269C109.873 231.992 109.994 231.732 110.197 231.544C110.401 231.356 110.67 231.257 110.947 231.268C110.975 231.268 112.416 231.329 115.026 231.178C115.164 231.166 115.304 231.183 115.436 231.226C115.569 231.269 115.691 231.338 115.796 231.43C115.901 231.521 115.987 231.632 116.048 231.757C116.11 231.882 116.146 232.018 116.154 232.157C116.162 232.296 116.142 232.435 116.095 232.566C116.048 232.697 115.976 232.818 115.882 232.92C115.788 233.023 115.675 233.106 115.548 233.164C115.422 233.222 115.285 233.255 115.146 233.259C113.63 233.348 112.475 233.366 111.772 233.366ZM123.387 232.344C123.125 232.343 122.872 232.245 122.68 232.067C122.487 231.889 122.369 231.645 122.348 231.384C122.327 231.122 122.406 230.863 122.568 230.657C122.73 230.451 122.963 230.313 123.222 230.272C124.568 230.055 125.933 229.801 127.28 229.52C127.55 229.465 127.83 229.519 128.06 229.671C128.29 229.822 128.451 230.058 128.507 230.327C128.564 230.597 128.511 230.878 128.362 231.108C128.212 231.339 127.977 231.502 127.708 231.56C126.329 231.849 124.931 232.109 123.554 232.33C123.499 232.339 123.443 232.344 123.387 232.344ZM135.571 229.482C135.322 229.481 135.082 229.392 134.893 229.229C134.704 229.067 134.58 228.842 134.543 228.596C134.505 228.35 134.557 228.099 134.689 227.888C134.82 227.676 135.023 227.519 135.261 227.445C136.571 227.035 137.885 226.59 139.164 226.124C139.294 226.074 139.431 226.05 139.57 226.054C139.708 226.058 139.845 226.089 139.971 226.146C140.097 226.203 140.211 226.285 140.305 226.386C140.399 226.488 140.473 226.607 140.52 226.737C140.568 226.867 140.589 227.005 140.583 227.144C140.577 227.282 140.543 227.418 140.483 227.543C140.424 227.668 140.34 227.78 140.237 227.873C140.134 227.965 140.013 228.036 139.882 228.081C138.571 228.562 137.225 229.019 135.882 229.437C135.781 229.468 135.676 229.483 135.571 229.482ZM147.198 224.875C146.962 224.875 146.734 224.795 146.549 224.649C146.364 224.502 146.235 224.297 146.182 224.067C146.129 223.838 146.155 223.597 146.256 223.384C146.358 223.171 146.528 222.999 146.74 222.895C147.967 222.296 149.195 221.655 150.387 220.991C150.629 220.856 150.914 220.823 151.18 220.899C151.446 220.975 151.671 221.153 151.806 221.394C151.94 221.636 151.973 221.921 151.898 222.187C151.822 222.453 151.644 222.678 151.402 222.813C150.176 223.495 148.916 224.153 147.655 224.769C147.513 224.839 147.357 224.875 147.198 224.875ZM157.942 218.491C157.721 218.491 157.506 218.421 157.327 218.291C157.149 218.161 157.016 217.977 156.949 217.767C156.881 217.556 156.882 217.33 156.952 217.12C157.022 216.911 157.156 216.728 157.336 216.6C158.443 215.81 159.545 214.975 160.611 214.119C160.827 213.945 161.103 213.865 161.378 213.895C161.653 213.925 161.904 214.063 162.078 214.279C162.251 214.494 162.331 214.77 162.301 215.045C162.271 215.32 162.133 215.572 161.917 215.745C160.82 216.625 159.686 217.483 158.547 218.297C158.37 218.423 158.159 218.491 157.942 218.491ZM167.447 210.387C167.241 210.387 167.04 210.327 166.869 210.213C166.698 210.099 166.564 209.937 166.485 209.747C166.406 209.557 166.384 209.349 166.423 209.147C166.462 208.945 166.56 208.759 166.704 208.613C167.662 207.64 168.603 206.629 169.501 205.606C169.59 205.499 169.7 205.41 169.824 205.346C169.947 205.282 170.083 205.243 170.222 205.232C170.36 205.221 170.5 205.238 170.632 205.282C170.765 205.326 170.887 205.396 170.992 205.488C171.096 205.58 171.182 205.692 171.242 205.817C171.303 205.943 171.338 206.079 171.345 206.218C171.352 206.357 171.331 206.496 171.284 206.627C171.236 206.758 171.163 206.879 171.068 206.981C170.144 208.034 169.176 209.076 168.19 210.077C168.093 210.175 167.977 210.253 167.849 210.307C167.722 210.36 167.585 210.387 167.447 210.387ZM175.415 200.774C175.225 200.774 175.038 200.722 174.875 200.623C174.712 200.524 174.58 200.383 174.492 200.214C174.403 200.045 174.363 199.856 174.375 199.665C174.387 199.475 174.451 199.292 174.56 199.136C175.334 198.024 176.089 196.869 176.814 195.7C176.959 195.465 177.192 195.297 177.461 195.234C177.73 195.17 178.014 195.216 178.249 195.362C178.484 195.507 178.652 195.74 178.716 196.009C178.779 196.278 178.733 196.562 178.588 196.797C177.846 197.997 177.067 199.185 176.272 200.327C176.176 200.465 176.048 200.578 175.899 200.656C175.749 200.734 175.584 200.774 175.415 200.774ZM181.705 189.988C181.528 189.988 181.355 189.943 181.2 189.857C181.046 189.772 180.916 189.648 180.822 189.499C180.728 189.349 180.674 189.178 180.664 189.002C180.655 188.826 180.69 188.65 180.767 188.491C181.081 187.845 181.388 187.19 181.689 186.524C181.806 186.276 182.015 186.085 182.271 185.99C182.528 185.896 182.812 185.906 183.061 186.018C183.31 186.131 183.505 186.337 183.604 186.592C183.703 186.847 183.698 187.13 183.589 187.381C183.281 188.065 182.966 188.737 182.644 189.397C182.559 189.574 182.426 189.723 182.26 189.828C182.093 189.932 181.901 189.988 181.705 189.988Z" fill="#E2271E"/>
<path d="M100.548 242.577H91.1349C90.9193 242.577 90.709 242.51 90.533 242.385C90.357 242.261 90.2239 242.085 90.152 241.882C88.488 237.178 88.2823 236.321 88.2579 236.197C87.7185 233.437 88.381 230.384 90.2278 227.119C90.3186 226.959 90.4504 226.825 90.6098 226.732C90.7691 226.639 90.9503 226.59 91.1349 226.59H100.548C100.824 226.59 101.089 226.7 101.285 226.895C101.48 227.091 101.59 227.356 101.59 227.632C101.59 227.909 101.48 228.174 101.285 228.37C101.089 228.565 100.824 228.675 100.548 228.675H91.7535C90.3786 231.288 89.8914 233.68 90.305 235.796C90.305 235.806 90.485 236.545 91.8731 240.492H100.548C100.824 240.492 101.089 240.601 101.285 240.797C101.48 240.992 101.59 241.258 101.59 241.534C101.59 241.811 101.48 242.076 101.285 242.271C101.089 242.467 100.824 242.577 100.548 242.577Z" fill="#E2271E"/>
<path d="M79.9267 274.495C77.7433 274.449 75.5901 273.976 73.589 273.101C73.3985 273.022 73.2358 272.889 73.1212 272.717C73.0066 272.546 72.9454 272.344 72.9453 272.138V227.63C72.9455 227.418 73.0102 227.211 73.1309 227.037C73.9351 225.846 75.0151 224.867 76.2789 224.183C79.7544 222.335 83.562 223.492 86.3403 224.338C88.2132 224.91 90.0067 225.716 91.6785 226.736C91.7955 226.807 91.8973 226.901 91.9781 227.012C92.0589 227.122 92.1171 227.248 92.1495 227.381C92.1818 227.514 92.1876 227.652 92.1665 227.787C92.1455 227.923 92.098 228.052 92.0267 228.169C91.9555 228.286 91.8619 228.388 91.7513 228.469C91.6407 228.55 91.5153 228.608 91.3822 228.64C91.2491 228.673 91.111 228.678 90.9757 228.657C90.8403 228.636 90.7105 228.589 90.5935 228.518C89.0721 227.587 87.4397 226.852 85.7349 226.329C83.17 225.549 79.9768 224.577 77.2597 226.021C76.3841 226.496 75.6245 227.159 75.0354 227.963V271.43C78.0431 272.555 80.7567 272.719 82.9198 271.896C88.9614 269.603 91.5117 258.847 90.0993 241.619C90.0872 241.482 90.1024 241.344 90.1439 241.213C90.1853 241.082 90.2523 240.96 90.341 240.855C90.4296 240.75 90.5382 240.663 90.6604 240.6C90.7826 240.537 90.9161 240.499 91.0531 240.488C91.1901 240.477 91.328 240.493 91.4588 240.535C91.5896 240.577 91.7107 240.645 91.8153 240.735C91.9198 240.824 92.0056 240.933 92.0678 241.056C92.1299 241.178 92.1673 241.312 92.1776 241.449C93.7151 260.213 90.85 271.112 83.6614 273.846C82.4665 274.288 81.2008 274.508 79.9267 274.495Z" fill="#E2271E"/>
<path d="M73.9892 273.643H71.4411C71.1645 273.643 70.8993 273.533 70.7038 273.338C70.5083 273.142 70.3984 272.877 70.3984 272.6V227.629C70.3984 227.352 70.5083 227.087 70.7038 226.891C70.8993 226.696 71.1645 226.586 71.4411 226.586H73.9892C74.2658 226.586 74.531 226.696 74.7265 226.891C74.922 227.087 75.0319 227.352 75.0319 227.629C75.0319 227.905 74.922 228.17 74.7265 228.366C74.531 228.561 74.2658 228.671 73.9892 228.671H72.4837V271.558H73.9892C74.2658 271.558 74.531 271.668 74.7265 271.863C74.922 272.059 75.0319 272.324 75.0319 272.6C75.0319 272.877 74.922 273.142 74.7265 273.338C74.531 273.533 74.2658 273.643 73.9892 273.643Z" fill="#E2271E"/>
<path d="M96.0013 242.576C95.8508 242.576 95.702 242.543 95.5652 242.48C95.4284 242.418 95.3069 242.326 95.2089 242.211C89.6399 235.704 93.7277 227.502 93.9042 227.155C94.0326 226.913 94.2507 226.732 94.5115 226.65C94.7723 226.568 95.055 226.591 95.2985 226.715C95.5421 226.84 95.7271 227.055 95.8137 227.314C95.9003 227.573 95.8816 227.856 95.7615 228.102C95.6072 228.408 92.1471 235.42 96.793 240.853C96.9225 241.004 97.0059 241.189 97.0334 241.387C97.0608 241.584 97.0311 241.785 96.9478 241.966C96.8645 242.147 96.7311 242.301 96.5634 242.408C96.3956 242.516 96.2006 242.573 96.0013 242.573V242.576Z" fill="#E2271E"/>
<path d="M91.3657 246.294C91.1096 246.293 90.8626 246.199 90.6719 246.028C90.4811 245.857 90.3599 245.622 90.3314 245.367C90.3092 245.196 89.7754 241.7 83.7184 241.687C83.4419 241.687 83.1767 241.577 82.9812 241.381C82.7856 241.186 82.6758 240.921 82.6758 240.644C82.6758 240.368 82.7856 240.102 82.9812 239.907C83.1767 239.711 83.4419 239.602 83.7184 239.602C91.7494 239.619 92.3951 245.093 92.4007 245.147C92.4283 245.422 92.3455 245.697 92.1706 245.911C91.9956 246.125 91.7429 246.261 91.4679 246.288C91.434 246.292 91.3998 246.294 91.3657 246.294Z" fill="#E2271E"/>
<path d="M91.3657 250.462C91.1096 250.461 90.8626 250.367 90.6719 250.196C90.4811 250.025 90.3599 249.79 90.3314 249.535C90.3092 249.364 89.7754 245.868 83.7184 245.855C83.4419 245.855 83.1767 245.745 82.9812 245.549C82.7856 245.354 82.6758 245.089 82.6758 244.812C82.6758 244.536 82.7856 244.27 82.9812 244.075C83.1767 243.879 83.4419 243.77 83.7184 243.77C91.7494 243.787 92.3951 249.261 92.4007 249.315C92.4283 249.59 92.3455 249.865 92.1706 250.079C91.9956 250.293 91.7429 250.428 91.4679 250.456C91.434 250.46 91.3998 250.462 91.3657 250.462Z" fill="#E2271E"/>
<path d="M91.3657 255.329C91.1096 255.329 90.8626 255.234 90.6719 255.063C90.4811 254.892 90.3599 254.657 90.3314 254.402C90.3092 254.231 89.7754 250.735 83.7184 250.722C83.4419 250.722 83.1767 250.612 82.9812 250.417C82.7856 250.221 82.6758 249.956 82.6758 249.679C82.6758 249.403 82.7856 249.138 82.9812 248.942C83.1767 248.747 83.4419 248.637 83.7184 248.637C91.7494 248.654 92.3951 254.128 92.4007 254.182C92.4283 254.457 92.3455 254.732 92.1706 254.946C91.9956 255.16 91.7429 255.296 91.4679 255.323C91.434 255.327 91.3998 255.329 91.3657 255.329Z" fill="#E2271E"/>
<path d="M89.1149 267.162C88.8756 267.161 88.6437 267.079 88.458 266.928C88.2723 266.777 88.1442 266.567 88.0953 266.332C87.9101 265.675 87.5891 265.063 87.153 264.537C86.7168 264.011 86.1752 263.582 85.5631 263.279C83.092 262.009 79.2316 262.441 74.4007 264.523C74.1467 264.632 73.8596 264.636 73.6026 264.534C73.3456 264.432 73.1398 264.232 73.0304 263.978C72.921 263.724 72.9169 263.437 73.0192 263.18C73.1215 262.923 73.3216 262.717 73.5757 262.607C79.1071 260.224 83.4792 259.833 86.5682 261.451C87.4437 261.901 88.2143 262.531 88.8294 263.3C89.4445 264.069 89.8902 264.959 90.1374 265.912C90.1921 266.183 90.1369 266.464 89.9841 266.695C89.8312 266.925 89.593 267.085 89.3221 267.14C89.254 267.154 89.1845 267.162 89.1149 267.162Z" fill="#E2271E"/>
<path d="M81.5518 237.039H79.0856C78.8091 237.039 78.5439 236.929 78.3484 236.734C78.1528 236.538 78.043 236.273 78.043 235.996V227.632C78.043 227.356 78.1528 227.091 78.3484 226.895C78.5439 226.7 78.8091 226.59 79.0856 226.59H81.5518C81.8283 226.59 82.0935 226.7 82.289 226.895C82.4845 227.091 82.5944 227.356 82.5944 227.632V235.996C82.5944 236.273 82.4845 236.538 82.289 236.734C82.0935 236.929 81.8283 237.039 81.5518 237.039ZM80.1282 234.954H80.5091V228.675H80.1282V234.954Z" fill="#E2271E"/>
<path d="M278.299 272.916C278.03 272.916 277.771 272.812 277.576 272.625C277.382 272.438 277.267 272.183 277.257 271.913L276.695 257.274C275.621 235.883 266.97 216.097 252.335 201.572C252.139 201.377 252.028 201.112 252.027 200.835C252.026 200.559 252.135 200.293 252.33 200.097C252.525 199.901 252.79 199.79 253.066 199.789C253.343 199.788 253.609 199.897 253.805 200.092C268.808 214.983 277.677 235.258 278.778 257.181L279.341 271.833C279.346 271.97 279.324 272.106 279.277 272.235C279.229 272.363 279.157 272.481 279.064 272.581C278.971 272.682 278.859 272.763 278.735 272.82C278.61 272.878 278.476 272.91 278.339 272.915L278.299 272.916Z" fill="#E2271E"/>
<path d="M252.661 274.114C252.393 274.114 252.136 274.011 251.941 273.827C251.747 273.643 251.632 273.391 251.618 273.124C250.199 244.889 234.875 220.337 209.566 205.738C207.207 205.2 184.293 199.674 178.953 187.162C163.878 211.998 139.219 226.99 110.955 228.414C110.679 228.428 110.408 228.331 110.203 228.146C109.998 227.96 109.875 227.7 109.861 227.424C109.847 227.147 109.943 226.876 110.129 226.671C110.315 226.466 110.575 226.343 110.851 226.329C139.136 224.907 163.725 209.53 178.315 184.137C178.419 183.956 178.575 183.81 178.763 183.718C178.951 183.627 179.162 183.594 179.369 183.624C179.576 183.654 179.769 183.745 179.924 183.886C180.078 184.028 180.186 184.212 180.234 184.415C183.379 197.677 209.905 203.673 210.173 203.732C210.277 203.755 210.376 203.793 210.468 203.846C236.486 218.795 252.242 244.007 253.702 273.013C253.709 273.15 253.689 273.287 253.643 273.416C253.597 273.545 253.526 273.664 253.434 273.765C253.342 273.867 253.231 273.949 253.107 274.008C252.984 274.067 252.85 274.101 252.713 274.107L252.661 274.114Z" fill="#E2271E"/>
<path d="M247.338 284.78C247.068 284.781 246.808 284.676 246.614 284.489C246.419 284.301 246.305 284.046 246.295 283.776L245.919 273.524C245.914 273.387 245.936 273.251 245.983 273.123C246.031 272.994 246.104 272.877 246.197 272.776C246.29 272.676 246.402 272.595 246.527 272.538C246.651 272.481 246.786 272.449 246.922 272.444L284.49 271.063C284.766 271.055 285.034 271.155 285.237 271.341C285.338 271.434 285.419 271.546 285.476 271.671C285.533 271.795 285.565 271.93 285.57 272.067L285.947 282.319C285.952 282.456 285.93 282.593 285.882 282.721C285.835 282.849 285.762 282.967 285.669 283.067C285.575 283.168 285.463 283.249 285.339 283.306C285.214 283.362 285.08 283.394 284.943 283.399L247.378 284.777L247.338 284.78ZM248.041 274.493L248.342 282.661L283.826 281.356L283.525 273.188L248.041 274.493Z" fill="#E2271E"/>
<path d="M247.24 282.021C246.963 282.026 246.696 281.921 246.497 281.729C246.298 281.537 246.183 281.274 246.178 280.998C246.173 280.721 246.278 280.454 246.47 280.255C246.662 280.056 246.925 279.941 247.201 279.936L249.287 279.856C249.562 279.848 249.83 279.949 250.032 280.137C250.234 280.324 250.355 280.583 250.368 280.859C250.373 280.996 250.351 281.132 250.304 281.261C250.256 281.389 250.184 281.507 250.091 281.607C249.997 281.707 249.885 281.788 249.761 281.846C249.637 281.903 249.502 281.935 249.365 281.94L247.28 282.02L247.24 282.021Z" fill="#E2271E"/>
<path d="M257.678 281.623C257.401 281.628 257.134 281.523 256.935 281.331C256.736 281.139 256.621 280.876 256.615 280.6C256.61 280.323 256.715 280.056 256.907 279.857C257.099 279.657 257.362 279.543 257.638 279.537L261.816 279.378C261.953 279.373 262.09 279.395 262.218 279.442C262.347 279.49 262.465 279.562 262.565 279.655C262.666 279.748 262.747 279.86 262.804 279.985C262.862 280.109 262.894 280.244 262.899 280.381C262.904 280.518 262.882 280.654 262.835 280.783C262.787 280.911 262.715 281.029 262.622 281.13C262.529 281.23 262.417 281.311 262.292 281.369C262.168 281.426 262.033 281.458 261.896 281.463L257.719 281.623H257.678ZM270.212 281.144C269.935 281.149 269.668 281.045 269.469 280.853C269.269 280.661 269.155 280.398 269.15 280.121C269.144 279.845 269.249 279.577 269.441 279.378C269.633 279.179 269.896 279.064 270.173 279.059L274.35 278.899C274.487 278.894 274.624 278.916 274.752 278.963C274.881 279.011 274.999 279.083 275.099 279.176C275.2 279.269 275.281 279.381 275.338 279.506C275.396 279.63 275.428 279.765 275.433 279.901C275.438 280.038 275.417 280.175 275.369 280.304C275.322 280.432 275.249 280.55 275.156 280.651C275.063 280.751 274.951 280.832 274.827 280.89C274.702 280.947 274.568 280.979 274.431 280.984L270.253 281.144H270.212Z" fill="#E2271E"/>
<path d="M282.744 280.666C282.467 280.671 282.2 280.566 282.001 280.374C281.802 280.182 281.687 279.919 281.682 279.643C281.677 279.366 281.782 279.099 281.973 278.9C282.165 278.701 282.428 278.586 282.705 278.581L284.79 278.501C285.067 278.49 285.336 278.59 285.539 278.778C285.742 278.966 285.862 279.227 285.873 279.503C285.883 279.78 285.784 280.049 285.596 280.252C285.408 280.455 285.147 280.575 284.87 280.586L282.785 280.666H282.744Z" fill="#E2271E"/>
<path d="M257.604 274.115H257.561C257.424 274.109 257.29 274.077 257.165 274.019C257.041 273.962 256.929 273.88 256.836 273.78C256.743 273.679 256.671 273.561 256.624 273.432C256.577 273.304 256.555 273.167 256.561 273.03C256.561 273.018 256.573 272.732 256.573 272.206C256.573 271.532 256.555 270.421 256.472 268.954C256.46 268.815 256.476 268.675 256.52 268.543C256.563 268.41 256.632 268.288 256.723 268.183C256.815 268.078 256.926 267.992 257.051 267.93C257.176 267.869 257.312 267.833 257.451 267.825C257.59 267.817 257.729 267.837 257.861 267.884C257.992 267.931 258.112 268.003 258.215 268.097C258.318 268.191 258.4 268.305 258.459 268.431C258.517 268.558 258.549 268.695 258.553 268.834C258.64 270.351 258.658 271.505 258.658 272.206C258.658 272.799 258.645 273.114 258.645 273.114C258.634 273.383 258.52 273.638 258.326 273.824C258.132 274.011 257.873 274.115 257.604 274.115ZM256.591 261.636C256.344 261.635 256.105 261.547 255.917 261.386C255.729 261.226 255.604 261.004 255.564 260.759C255.347 259.414 255.094 258.048 254.812 256.703C254.78 256.567 254.775 256.426 254.797 256.289C254.82 256.151 254.87 256.02 254.945 255.902C255.02 255.784 255.117 255.682 255.232 255.603C255.346 255.523 255.476 255.468 255.612 255.439C255.749 255.41 255.889 255.409 256.026 255.436C256.163 255.463 256.293 255.517 256.409 255.595C256.524 255.673 256.623 255.773 256.699 255.89C256.776 256.007 256.827 256.138 256.852 256.275C257.141 257.654 257.401 259.051 257.622 260.428C257.666 260.701 257.6 260.98 257.438 261.204C257.276 261.428 257.032 261.579 256.759 261.623C256.704 261.632 256.648 261.636 256.591 261.636ZM253.734 249.456C253.512 249.456 253.295 249.385 253.116 249.253C252.937 249.121 252.805 248.936 252.739 248.723C252.332 247.416 251.886 246.103 251.418 244.82C251.371 244.692 251.349 244.555 251.355 244.418C251.361 244.282 251.393 244.147 251.451 244.023C251.508 243.899 251.59 243.787 251.691 243.694C251.791 243.601 251.909 243.529 252.038 243.482C252.167 243.435 252.303 243.414 252.44 243.419C252.577 243.425 252.711 243.458 252.835 243.515C252.96 243.573 253.071 243.654 253.164 243.755C253.257 243.856 253.329 243.974 253.376 244.102C253.858 245.417 254.314 246.764 254.731 248.103C254.814 248.367 254.788 248.653 254.659 248.898C254.531 249.143 254.31 249.326 254.046 249.409C253.945 249.44 253.84 249.456 253.734 249.456ZM249.128 237.83C248.933 237.83 248.741 237.775 248.576 237.672C248.41 237.569 248.277 237.421 248.191 237.245C247.587 236.009 246.946 234.783 246.287 233.598C246.218 233.478 246.174 233.346 246.156 233.208C246.139 233.071 246.149 232.932 246.186 232.799C246.223 232.666 246.286 232.542 246.372 232.433C246.457 232.325 246.563 232.234 246.684 232.167C246.804 232.1 246.937 232.057 247.074 232.042C247.212 232.026 247.351 232.038 247.483 232.077C247.616 232.116 247.739 232.181 247.847 232.268C247.954 232.354 248.043 232.462 248.109 232.583C248.787 233.8 249.445 235.061 250.065 236.33C250.125 236.453 250.16 236.587 250.168 236.723C250.177 236.86 250.158 236.997 250.114 237.126C250.069 237.256 249.999 237.375 249.909 237.478C249.818 237.58 249.708 237.664 249.585 237.724C249.443 237.794 249.287 237.83 249.128 237.83ZM242.745 227.085C242.579 227.085 242.416 227.046 242.268 226.97C242.12 226.893 241.993 226.783 241.897 226.648C241.102 225.536 240.267 224.433 239.415 223.373C239.326 223.266 239.26 223.143 239.219 223.011C239.178 222.879 239.164 222.739 239.178 222.602C239.192 222.464 239.233 222.33 239.299 222.208C239.365 222.086 239.455 221.979 239.563 221.892C239.671 221.805 239.795 221.741 239.928 221.703C240.061 221.664 240.201 221.653 240.338 221.669C240.476 221.686 240.609 221.729 240.729 221.797C240.85 221.866 240.956 221.957 241.04 222.067C241.918 223.157 242.778 224.291 243.593 225.437C243.705 225.593 243.771 225.777 243.784 225.967C243.798 226.158 243.759 226.349 243.672 226.52C243.584 226.69 243.451 226.833 243.288 226.933C243.125 227.032 242.937 227.085 242.745 227.085ZM234.641 217.579C234.368 217.579 234.105 217.471 233.91 217.278C232.943 216.326 231.931 215.384 230.901 214.481C230.693 214.298 230.567 214.04 230.549 213.764C230.531 213.488 230.624 213.217 230.806 213.009C230.989 212.801 231.247 212.674 231.523 212.657C231.799 212.639 232.07 212.731 232.278 212.914C233.337 213.844 234.378 214.812 235.373 215.793C235.521 215.938 235.622 216.124 235.663 216.327C235.705 216.529 235.685 216.74 235.607 216.931C235.528 217.123 235.394 217.287 235.223 217.402C235.051 217.517 234.848 217.579 234.641 217.579ZM225.026 209.607C224.814 209.608 224.606 209.542 224.432 209.42C223.988 209.112 223.537 208.806 223.081 208.502C222.967 208.426 222.869 208.329 222.792 208.215C222.716 208.101 222.663 207.973 222.636 207.839C222.609 207.705 222.608 207.566 222.635 207.432C222.661 207.297 222.714 207.17 222.79 207.055C222.866 206.941 222.963 206.843 223.077 206.767C223.191 206.691 223.319 206.637 223.453 206.61C223.587 206.583 223.726 206.583 223.86 206.609C223.995 206.636 224.123 206.689 224.237 206.765C224.705 207.076 225.167 207.39 225.623 207.707C225.805 207.834 225.942 208.016 226.014 208.226C226.086 208.436 226.089 208.664 226.023 208.876C225.956 209.088 225.824 209.273 225.644 209.404C225.465 209.536 225.249 209.606 225.026 209.606V209.607Z" fill="#E2271E"/>
<path d="M265.142 294.512C262.643 294.439 260.196 293.772 258.006 292.565C257.835 292.478 257.692 292.345 257.592 292.181C257.492 292.018 257.44 291.83 257.439 291.638V283.788C257.439 283.511 257.549 283.246 257.745 283.051C257.94 282.855 258.206 282.745 258.482 282.745C258.759 282.745 259.024 282.855 259.219 283.051C259.415 283.246 259.525 283.511 259.525 283.788V290.992C262.138 292.234 264.537 292.669 266.664 292.296C266.676 292.292 267.406 292.134 271.341 290.878V283.093C271.341 282.817 271.451 282.552 271.647 282.356C271.842 282.161 272.107 282.051 272.384 282.051C272.66 282.051 272.925 282.161 273.121 282.356C273.317 282.552 273.426 282.817 273.426 283.093V291.639C273.426 291.86 273.356 292.075 273.226 292.254C273.096 292.432 272.913 292.564 272.703 292.632C268.003 294.142 267.15 294.327 267.027 294.35C266.405 294.459 265.774 294.513 265.142 294.512Z" fill="#E2271E"/>
<path d="M302.989 309.641H258.482C258.27 309.641 258.063 309.576 257.889 309.455C256.698 308.651 255.719 307.571 255.035 306.307C253.186 302.832 254.344 299.026 255.19 296.247C255.763 294.374 256.57 292.581 257.591 290.91C257.738 290.679 257.969 290.515 258.235 290.452C258.501 290.39 258.781 290.435 259.015 290.577C259.249 290.719 259.417 290.948 259.484 291.213C259.551 291.478 259.511 291.759 259.372 291.995C258.442 293.516 257.707 295.148 257.185 296.853C256.404 299.42 255.432 302.612 256.876 305.329C257.353 306.205 258.017 306.964 258.822 307.553H302.284C303.41 304.546 303.572 301.831 302.75 299.668C300.457 293.628 289.705 291.076 272.472 292.489C272.335 292.501 272.197 292.486 272.066 292.444C271.935 292.403 271.813 292.336 271.708 292.247C271.603 292.159 271.517 292.05 271.454 291.928C271.391 291.806 271.352 291.672 271.341 291.535C271.33 291.398 271.346 291.26 271.388 291.129C271.431 290.999 271.498 290.877 271.588 290.773C271.677 290.668 271.786 290.583 271.909 290.52C272.031 290.458 272.165 290.421 272.302 290.411C291.065 288.874 301.966 291.739 304.699 298.927C305.772 301.75 305.515 305.231 303.956 308.994C303.878 309.186 303.744 309.35 303.571 309.465C303.399 309.58 303.197 309.641 302.989 309.641Z" fill="#E2271E"/>
<path d="M303.452 312.189H258.48C258.204 312.189 257.938 312.079 257.743 311.883C257.547 311.688 257.438 311.423 257.438 311.146V308.597C257.437 308.321 257.547 308.056 257.743 307.86C257.938 307.665 258.204 307.555 258.48 307.555C258.757 307.555 259.022 307.665 259.217 307.86C259.413 308.056 259.523 308.321 259.523 308.597V310.104H302.409V308.597C302.409 308.321 302.519 308.056 302.715 307.86C302.91 307.665 303.176 307.555 303.452 307.555C303.729 307.555 303.994 307.665 304.189 307.86C304.385 308.056 304.495 308.321 304.495 308.597V311.146C304.495 311.423 304.385 311.688 304.189 311.883C303.994 312.079 303.729 312.189 303.452 312.189Z" fill="#E2271E"/>
<path d="M265.018 290.294C262.592 290.27 260.201 289.72 258.008 288.682C257.767 288.554 257.585 288.336 257.503 288.075C257.421 287.814 257.445 287.532 257.569 287.288C257.693 287.044 257.908 286.859 258.167 286.773C258.427 286.686 258.71 286.705 258.955 286.825C259.251 286.975 266.271 290.446 271.706 285.793C271.916 285.614 272.189 285.525 272.465 285.546C272.741 285.568 272.997 285.698 273.177 285.908C273.356 286.118 273.445 286.391 273.424 286.667C273.402 286.943 273.272 287.198 273.062 287.378C270.827 289.3 267.965 290.337 265.018 290.294Z" fill="#E2271E"/>
<path d="M271.498 299.909C271.221 299.909 270.956 299.799 270.76 299.604C270.565 299.408 270.455 299.143 270.455 298.866C270.472 290.836 275.946 290.19 275.999 290.185C276.273 290.158 276.546 290.24 276.759 290.414C276.973 290.587 277.109 290.838 277.138 291.112C277.167 291.385 277.087 291.659 276.915 291.874C276.743 292.089 276.493 292.227 276.22 292.258C276.046 292.28 272.553 292.814 272.54 298.87C272.539 299.146 272.429 299.41 272.233 299.605C272.038 299.8 271.774 299.909 271.498 299.909Z" fill="#E2271E"/>
<path d="M275.668 299.909C275.391 299.909 275.126 299.799 274.93 299.604C274.735 299.408 274.625 299.143 274.625 298.866C274.642 290.836 280.116 290.19 280.169 290.185C280.443 290.158 280.716 290.24 280.929 290.414C281.143 290.587 281.279 290.838 281.308 291.112C281.337 291.385 281.257 291.659 281.085 291.874C280.913 292.089 280.663 292.227 280.39 292.258C280.216 292.28 276.723 292.814 276.71 298.87C276.709 299.146 276.599 299.41 276.403 299.605C276.208 299.8 275.943 299.909 275.668 299.909Z" fill="#E2271E"/>
<path d="M280.533 299.909C280.256 299.909 279.991 299.799 279.796 299.604C279.6 299.408 279.49 299.143 279.49 298.866C279.508 290.836 284.981 290.19 285.034 290.185C285.308 290.158 285.581 290.24 285.795 290.414C286.008 290.587 286.144 290.838 286.173 291.112C286.202 291.385 286.122 291.659 285.95 291.874C285.778 292.089 285.529 292.227 285.255 292.258C285.081 292.28 281.588 292.814 281.575 298.87C281.574 299.146 281.464 299.41 281.269 299.605C281.073 299.8 280.809 299.909 280.533 299.909Z" fill="#E2271E"/>
<path d="M294.418 309.641C294.214 309.641 294.014 309.582 293.844 309.47C293.674 309.358 293.54 309.199 293.459 309.011C291.075 303.48 290.686 299.109 292.302 296.019C292.752 295.143 293.382 294.373 294.151 293.758C294.92 293.143 295.81 292.697 296.763 292.45C297.03 292.402 297.305 292.461 297.53 292.613C297.755 292.765 297.912 293 297.966 293.266C298.021 293.531 297.97 293.808 297.824 294.037C297.678 294.266 297.448 294.429 297.184 294.491C296.526 294.677 295.915 294.998 295.389 295.434C294.863 295.87 294.434 296.412 294.13 297.024C292.861 299.494 293.292 303.355 295.375 308.186C295.443 308.344 295.471 308.517 295.456 308.689C295.441 308.861 295.383 309.027 295.288 309.171C295.194 309.316 295.064 309.434 294.912 309.516C294.76 309.598 294.59 309.641 294.418 309.641Z" fill="#E2271E"/>
<path d="M266.845 304.544H258.482C258.206 304.544 257.94 304.434 257.745 304.239C257.549 304.043 257.439 303.778 257.439 303.502V301.035C257.439 300.758 257.549 300.493 257.745 300.298C257.94 300.102 258.206 299.992 258.482 299.992H266.845C267.122 299.992 267.387 300.102 267.583 300.298C267.778 300.493 267.888 300.758 267.888 301.035V303.502C267.888 303.639 267.861 303.774 267.809 303.901C267.756 304.027 267.679 304.142 267.583 304.239C267.486 304.336 267.371 304.413 267.244 304.465C267.118 304.517 266.982 304.544 266.845 304.544ZM259.525 302.459H265.803V302.077H259.525V302.459Z" fill="#E2271E"/>
<path d="M179.643 180.313C179.481 180.313 179.322 180.276 179.177 180.204C179.032 180.132 178.907 180.027 178.809 179.898C178.712 179.769 178.646 179.619 178.617 179.46C178.588 179.301 178.596 179.137 178.64 178.982C185.512 155.114 198.549 113.736 198.68 113.32C198.767 113.063 198.952 112.849 199.195 112.726C199.438 112.603 199.72 112.58 199.98 112.661C200.239 112.743 200.457 112.923 200.586 113.163C200.714 113.403 200.744 113.684 200.668 113.946C200.538 114.363 187.509 155.714 180.644 179.557C180.582 179.775 180.451 179.966 180.27 180.103C180.089 180.239 179.869 180.313 179.643 180.313Z" fill="#E2271E"/>
<path d="M217.637 144.313C217.382 144.313 217.136 144.219 216.946 144.049C216.755 143.88 216.634 143.647 216.604 143.394L214.518 125.82C214.487 125.547 214.566 125.272 214.737 125.056C214.908 124.839 215.158 124.7 215.431 124.667C215.705 124.635 215.98 124.712 216.197 124.882C216.414 125.052 216.555 125.301 216.589 125.574L218.674 143.148C218.707 143.423 218.629 143.699 218.458 143.916C218.287 144.133 218.036 144.274 217.762 144.306C217.72 144.311 217.679 144.313 217.637 144.313Z" fill="#E2271E"/>
<path d="M212.772 135.525C212.549 135.525 212.332 135.453 212.152 135.321C211.973 135.188 211.841 135.001 211.776 134.787L209.413 127.054C209.373 126.924 209.359 126.786 209.372 126.65C209.385 126.513 209.425 126.381 209.489 126.26C209.554 126.139 209.641 126.032 209.747 125.945C209.852 125.858 209.974 125.793 210.105 125.753C210.236 125.713 210.374 125.699 210.51 125.712C210.646 125.725 210.778 125.765 210.899 125.829C211.02 125.893 211.127 125.981 211.214 126.087C211.301 126.192 211.367 126.314 211.407 126.445L213.77 134.178C213.818 134.334 213.828 134.499 213.801 134.659C213.773 134.82 213.708 134.972 213.611 135.103C213.514 135.234 213.388 135.341 213.242 135.414C213.096 135.488 212.935 135.526 212.772 135.525Z" fill="#E2271E"/>
<path d="M234.842 210.682C234.685 210.682 234.53 210.646 234.388 210.578C234.246 210.509 234.122 210.41 234.025 210.286L228.291 203.051C228.214 202.954 228.155 202.843 228.116 202.725C223.547 188.661 223.547 188.237 223.547 188.033C223.545 187.766 223.646 187.509 223.829 187.314C224.012 187.119 224.263 187.002 224.529 186.986C224.796 186.971 225.059 187.058 225.263 187.231C225.467 187.403 225.597 187.648 225.626 187.913C225.809 188.765 228.397 196.838 230.041 201.903L235.659 208.993C235.781 209.146 235.857 209.331 235.878 209.526C235.9 209.721 235.866 209.918 235.781 210.094C235.695 210.271 235.562 210.42 235.396 210.524C235.23 210.628 235.038 210.683 234.842 210.683V210.682Z" fill="#E2271E"/>
<path d="M229.11 203.448C229.053 203.448 228.996 203.444 228.941 203.434L215.387 201.228C215.251 201.206 215.122 201.158 215.006 201.085C214.889 201.013 214.788 200.919 214.708 200.808C214.628 200.697 214.571 200.571 214.539 200.438C214.508 200.304 214.503 200.166 214.525 200.031C214.547 199.896 214.596 199.766 214.668 199.65C214.74 199.534 214.834 199.433 214.945 199.353C215.057 199.273 215.182 199.215 215.316 199.184C215.449 199.153 215.587 199.148 215.722 199.17L229.276 201.376C229.535 201.418 229.769 201.555 229.931 201.762C230.093 201.968 230.171 202.228 230.15 202.489C230.129 202.751 230.01 202.994 229.817 203.172C229.625 203.35 229.372 203.448 229.11 203.448Z" fill="#E2271E"/>
<path d="M247.849 113.097H247.843C247.706 113.096 247.571 113.068 247.444 113.015C247.318 112.962 247.204 112.884 247.107 112.787C247.011 112.689 246.935 112.574 246.883 112.447C246.832 112.32 246.806 112.184 246.807 112.047L246.844 106.196C246.846 105.921 246.957 105.657 247.152 105.463C247.347 105.269 247.611 105.16 247.887 105.16H247.894C248.031 105.161 248.166 105.189 248.292 105.242C248.418 105.295 248.533 105.373 248.629 105.47C248.725 105.568 248.801 105.683 248.853 105.81C248.904 105.937 248.93 106.073 248.929 106.21L248.892 112.061C248.89 112.336 248.779 112.6 248.584 112.794C248.389 112.988 248.125 113.097 247.849 113.097Z" fill="#E2271E"/>
<path d="M254.863 111.078C254.699 111.078 254.537 111.039 254.391 110.965C254.245 110.891 254.119 110.784 254.022 110.651C253.925 110.519 253.861 110.366 253.834 110.204C253.808 110.042 253.819 109.877 253.869 109.72L254.634 107.313C254.675 107.183 254.742 107.062 254.83 106.957C254.919 106.852 255.027 106.766 255.149 106.703C255.27 106.64 255.403 106.601 255.54 106.59C255.676 106.578 255.814 106.593 255.944 106.635C256.075 106.677 256.196 106.743 256.301 106.832C256.406 106.92 256.492 107.028 256.555 107.15C256.618 107.272 256.657 107.405 256.668 107.541C256.68 107.678 256.664 107.815 256.623 107.946L255.858 110.353C255.791 110.564 255.658 110.748 255.479 110.878C255.3 111.008 255.084 111.078 254.863 111.078Z" fill="#E2271E"/>
<path d="M180.609 59.5857C180.377 59.5855 180.152 59.5081 179.969 59.3659C179.787 59.2237 179.657 59.0247 179.599 58.8003L174.83 40.0761L142.341 47.8478C142.208 47.8798 142.07 47.8852 141.934 47.8637C141.799 47.8423 141.669 47.7944 141.553 47.7228C141.317 47.5783 141.148 47.3459 141.083 47.077C141.019 46.808 141.064 46.5245 141.208 46.2886C141.353 46.0528 141.585 45.8841 141.854 45.8196L175.343 37.8094C175.61 37.7463 175.89 37.7902 176.124 37.9318C176.358 38.0734 176.527 38.3013 176.595 38.5664L181.617 58.2859C181.656 58.4398 181.659 58.6007 181.627 58.7562C181.594 58.9117 181.527 59.0577 181.429 59.1831C181.332 59.3085 181.207 59.4099 181.064 59.4797C180.921 59.5495 180.765 59.5857 180.606 59.5857H180.609Z" fill="#E2271E"/>
<path d="M124.947 133.625C124.72 133.625 124.501 133.551 124.32 133.415C124.139 133.279 124.008 133.087 123.946 132.87L107.433 75.4561C107.357 75.1904 107.389 74.9051 107.523 74.6631C107.657 74.4211 107.881 74.2422 108.147 74.1657C108.413 74.0892 108.698 74.1214 108.94 74.2552C109.182 74.389 109.361 74.6135 109.437 74.8792L125.669 131.32L194.804 113.549C195.072 113.481 195.356 113.521 195.594 113.662C195.832 113.803 196.004 114.032 196.073 114.3C196.142 114.568 196.101 114.852 195.961 115.09C195.82 115.328 195.59 115.501 195.322 115.569L125.207 133.592C125.122 133.614 125.034 133.625 124.947 133.625Z" fill="#E2271E"/>
<path d="M120.368 138.074C120.161 138.073 119.958 138.011 119.786 137.896C119.614 137.78 119.481 137.615 119.403 137.423C119.325 137.231 119.306 137.02 119.348 136.817C119.391 136.614 119.493 136.428 119.642 136.284L124.22 131.835C124.318 131.736 124.434 131.657 124.562 131.604C124.69 131.55 124.828 131.522 124.967 131.523C125.106 131.523 125.243 131.551 125.371 131.606C125.499 131.66 125.615 131.739 125.712 131.839C125.809 131.939 125.885 132.057 125.936 132.186C125.986 132.316 126.01 132.454 126.007 132.593C126.003 132.732 125.972 132.869 125.914 132.995C125.857 133.122 125.775 133.236 125.673 133.33L123.832 135.119L188.383 119.458L193.903 114.222L191.957 106.46C191.923 106.328 191.917 106.19 191.937 106.054C191.957 105.919 192.003 105.788 192.074 105.671C192.144 105.554 192.237 105.451 192.347 105.369C192.457 105.288 192.582 105.229 192.714 105.195C192.847 105.162 192.985 105.155 193.121 105.175C193.256 105.195 193.386 105.242 193.504 105.312C193.621 105.383 193.724 105.475 193.805 105.585C193.887 105.695 193.946 105.82 193.979 105.953L196.077 114.306C196.122 114.485 196.119 114.674 196.067 114.851C196.016 115.029 195.918 115.19 195.783 115.317L189.62 121.162C189.487 121.287 189.325 121.375 189.148 121.419L120.614 138.044C120.533 138.064 120.451 138.073 120.368 138.074Z" fill="#E2271E"/>
<path d="M120.367 138.075C120.139 138.075 119.918 138 119.736 137.862C119.554 137.724 119.423 137.53 119.362 137.31L102.672 76.6432C102.636 76.5112 102.626 76.3733 102.643 76.2374C102.66 76.1016 102.703 75.9704 102.771 75.8513C102.839 75.7323 102.929 75.6278 103.037 75.5438C103.146 75.4597 103.269 75.3978 103.401 75.3615C103.533 75.3252 103.671 75.3153 103.807 75.3323C103.943 75.3493 104.074 75.3929 104.193 75.4606C104.312 75.5283 104.417 75.6188 104.501 75.7269C104.585 75.835 104.647 75.9586 104.683 76.0906L121.373 136.758C121.41 136.89 121.419 137.027 121.402 137.163C121.385 137.299 121.342 137.43 121.274 137.549C121.206 137.668 121.116 137.773 121.008 137.857C120.9 137.941 120.776 138.003 120.644 138.039C120.554 138.063 120.461 138.075 120.367 138.075Z" fill="#E2271E"/>
<path d="M150.006 117.575C141.989 117.566 134.304 114.377 128.635 108.709C122.967 103.04 119.779 95.3548 119.77 87.3385C119.77 78.6861 122.751 71.5024 128.629 65.9862C128.832 65.802 129.098 65.7049 129.372 65.7157C129.645 65.7264 129.903 65.8443 130.091 66.0439C130.278 66.2434 130.379 66.5086 130.373 66.7822C130.366 67.0558 130.253 67.3159 130.056 67.5063C124.614 72.6131 121.854 79.2859 121.854 87.3385C121.854 94.8045 124.82 101.965 130.099 107.244C135.379 112.523 142.539 115.489 150.005 115.489C157.471 115.489 164.631 112.523 169.911 107.244C175.19 101.965 178.156 94.8045 178.156 87.3385C178.156 86.4599 178.111 85.5472 178.023 84.6276C177.997 84.3523 178.081 84.0778 178.257 83.8646C178.433 83.6513 178.687 83.5167 178.962 83.4905C179.237 83.4642 179.512 83.5484 179.725 83.7245C179.938 83.9006 180.073 84.1542 180.099 84.4295C180.193 85.4172 180.238 86.3966 180.238 87.3412C180.229 95.3565 177.04 103.041 171.373 108.708C165.705 114.376 158.021 117.565 150.006 117.575Z" fill="#E2271E"/>
<path d="M150.005 114.679C144.323 114.68 138.782 112.91 134.152 109.616C129.523 106.322 126.035 101.667 124.173 96.299C122.311 90.9308 122.169 85.1159 123.765 79.6629C125.361 74.2099 128.617 69.3897 133.079 65.8727C133.296 65.7014 133.573 65.6233 133.847 65.6556C134.122 65.6879 134.372 65.828 134.544 66.0451C134.715 66.2622 134.793 66.5384 134.761 66.8131C134.729 67.0877 134.589 67.3383 134.371 67.5096C131.012 70.1589 128.38 73.6185 126.723 77.5637C125.067 81.5088 124.44 85.8102 124.902 90.064C125.363 94.3178 126.898 98.3846 129.362 101.883C131.826 105.381 135.139 108.195 138.989 110.062C142.839 111.929 147.1 112.787 151.373 112.556C155.645 112.325 159.789 111.012 163.415 108.74C167.041 106.468 170.03 103.312 172.102 99.5687C174.174 95.8251 175.261 91.6164 175.26 87.3376C175.259 85.5418 175.067 83.7513 174.689 81.9959C174.631 81.7254 174.683 81.443 174.833 81.2106C174.983 80.9782 175.219 80.815 175.489 80.7569C175.76 80.6987 176.042 80.7504 176.275 80.9005C176.507 81.0506 176.67 81.2868 176.728 81.5573C177.591 85.5462 177.549 89.6776 176.607 93.6484C175.664 97.6192 173.845 101.329 171.282 104.505C168.72 107.681 165.479 110.243 161.797 112.004C158.115 113.764 154.086 114.678 150.005 114.679Z" fill="#E2271E"/>
<path d="M158.834 111.756C158.616 111.756 158.403 111.688 158.226 111.561C158.049 111.434 157.916 111.254 157.846 111.048L147.355 80.0651C146.68 78.0709 145.867 75.7722 145.081 73.5494C144.295 71.3265 143.482 69.0271 142.803 67.026C142.759 66.8963 142.741 66.7592 142.75 66.6225C142.759 66.4859 142.795 66.3524 142.856 66.2296C142.916 66.1068 143.001 65.9971 143.104 65.9069C143.207 65.8166 143.327 65.7476 143.456 65.7036C143.586 65.6596 143.723 65.6417 143.86 65.6507C143.996 65.6597 144.13 65.6956 144.253 65.7562C144.375 65.8169 144.485 65.9011 144.575 66.0041C144.666 66.1071 144.735 66.2269 144.779 66.3566C145.451 68.3446 146.263 70.637 147.047 72.8536C147.836 75.0834 148.651 77.3883 149.331 79.3957L159.822 110.38C159.875 110.537 159.889 110.704 159.865 110.868C159.841 111.031 159.777 111.187 159.681 111.321C159.584 111.456 159.457 111.565 159.31 111.641C159.163 111.717 158.999 111.756 158.834 111.756Z" fill="#E2271E"/>
<path d="M125.207 97.1543C124.962 97.1549 124.724 97.0688 124.536 96.9113C124.347 96.7539 124.221 96.535 124.178 96.2934C124.135 96.0517 124.179 95.8028 124.302 95.5903C124.425 95.3778 124.618 95.2154 124.849 95.1316C132.947 92.1706 140.638 89.6919 148.076 87.296C155.965 84.754 164.123 82.1259 172.646 78.9508C172.904 78.8591 173.188 78.8726 173.436 78.9884C173.684 79.1041 173.877 79.3128 173.973 79.5693C174.068 79.8259 174.059 80.1098 173.947 80.3596C173.835 80.6094 173.629 80.8052 173.374 80.9047C164.808 84.0965 156.627 86.7323 148.715 89.2811C141.296 91.6708 133.625 94.1425 125.569 97.0911C125.453 97.1331 125.33 97.1545 125.207 97.1543Z" fill="#E2271E"/>
<path d="M139.262 112.388C139.081 112.388 138.902 112.341 138.745 112.25C138.587 112.16 138.456 112.03 138.364 111.874C138.272 111.717 138.223 111.539 138.221 111.358C138.219 111.177 138.264 110.998 138.352 110.839C142.007 104.262 145.19 97.4483 148.27 90.8596C151.388 84.1833 154.614 77.2811 158.352 70.5631C158.487 70.3214 158.712 70.1431 158.978 70.0673C159.244 69.9915 159.529 70.0244 159.771 70.1589C160.012 70.2934 160.191 70.5184 160.267 70.7844C160.342 71.0504 160.309 71.3356 160.175 71.5772C156.472 78.2285 153.262 85.0973 150.159 91.7402C147.065 98.3623 143.866 105.21 140.175 111.85C140.085 112.013 139.952 112.149 139.792 112.244C139.631 112.338 139.448 112.388 139.262 112.388Z" fill="#E2271E"/>
<path d="M173.421 100.361C173.259 100.36 173.099 100.323 172.955 100.25L125.923 76.6971C125.799 76.6364 125.689 76.5519 125.598 76.4484C125.508 76.3449 125.438 76.2244 125.394 76.094C125.35 75.9636 125.333 75.8258 125.342 75.6885C125.352 75.5513 125.389 75.4173 125.45 75.2943C125.512 75.1712 125.597 75.0616 125.702 74.9718C125.806 74.8819 125.927 74.8136 126.057 74.7707C126.188 74.7278 126.326 74.7112 126.463 74.7219C126.601 74.7326 126.734 74.7703 126.857 74.8329L173.887 98.3858C174.097 98.491 174.265 98.664 174.364 98.8768C174.464 99.0896 174.488 99.3297 174.434 99.5582C174.38 99.7868 174.25 99.9903 174.066 100.136C173.882 100.282 173.654 100.361 173.419 100.361H173.421Z" fill="#E2271E"/>
<path d="M245.613 113.099C245.569 113.099 245.524 113.096 245.48 113.09C245.206 113.056 244.957 112.913 244.787 112.695C244.618 112.477 244.542 112.2 244.577 111.925L245.753 102.665C245.79 102.393 245.934 102.147 246.152 101.98C246.369 101.814 246.644 101.739 246.916 101.774C247.189 101.808 247.436 101.949 247.606 102.165C247.775 102.38 247.852 102.654 247.821 102.927L246.646 112.187C246.614 112.439 246.491 112.67 246.301 112.838C246.111 113.006 245.866 113.098 245.613 113.099Z" fill="#E2271E"/>
<path d="M133.94 185.702H1.17934C0.902822 185.702 0.637626 185.593 0.442096 185.397C0.246566 185.202 0.136719 184.936 0.136719 184.66C0.136719 184.383 0.246566 184.118 0.442096 183.923C0.637626 183.727 0.902822 183.617 1.17934 183.617H133.94C134.217 183.617 134.482 183.727 134.678 183.923C134.873 184.118 134.983 184.383 134.983 184.66C134.983 184.936 134.873 185.202 134.678 185.397C134.482 185.593 134.217 185.702 133.94 185.702Z" fill="#E2271E"/>
<path d="M146.7 210.679H81.5524C81.2759 210.679 81.0107 210.569 80.8151 210.374C80.6196 210.178 80.5098 209.913 80.5098 209.636C80.5098 209.36 80.6196 209.095 80.8151 208.899C81.0107 208.704 81.2759 208.594 81.5524 208.594H146.7C146.976 208.594 147.241 208.704 147.437 208.899C147.633 209.095 147.742 209.36 147.742 209.636C147.742 209.913 147.633 210.178 147.437 210.374C147.241 210.569 146.976 210.679 146.7 210.679Z" fill="#E2271E"/>
<path d="M61.7123 210.679H35.2379C34.9614 210.679 34.6962 210.569 34.5007 210.374C34.3052 210.178 34.1953 209.913 34.1953 209.636C34.1953 209.36 34.3052 209.095 34.5007 208.899C34.6962 208.704 34.9614 208.594 35.2379 208.594H61.715C61.9916 208.594 62.2568 208.704 62.4523 208.899C62.6478 209.095 62.7577 209.36 62.7577 209.636C62.7577 209.913 62.6478 210.178 62.4523 210.374C62.2568 210.569 61.9916 210.679 61.715 210.679H61.7123Z" fill="#E2271E"/>
<path d="M213.788 285.449H193.978C193.702 285.449 193.436 285.339 193.241 285.143C193.045 284.948 192.936 284.682 192.936 284.406C192.936 284.129 193.045 283.864 193.241 283.669C193.436 283.473 193.702 283.363 193.978 283.363H213.788C214.065 283.363 214.33 283.473 214.525 283.669C214.721 283.864 214.831 284.129 214.831 284.406C214.831 284.682 214.721 284.948 214.525 285.143C214.33 285.339 214.065 285.449 213.788 285.449Z" fill="#E2271E"/>
<path d="M183.55 285.449H151.748C151.471 285.449 151.206 285.339 151.01 285.143C150.815 284.948 150.705 284.682 150.705 284.406C150.705 284.129 150.815 283.864 151.01 283.669C151.206 283.473 151.471 283.363 151.748 283.363H183.55C183.826 283.363 184.092 283.473 184.287 283.669C184.483 283.864 184.592 284.129 184.592 284.406C184.592 284.682 184.483 284.948 184.287 285.143C184.092 285.339 183.826 285.449 183.55 285.449Z" fill="#E2271E"/>
<path d="M139.264 285.449H62.8043C62.5278 285.449 62.2626 285.339 62.0671 285.143C61.8716 284.948 61.7617 284.682 61.7617 284.406C61.7617 284.129 61.8716 283.864 62.0671 283.669C62.2626 283.473 62.5278 283.363 62.8043 283.363H139.264C139.54 283.363 139.805 283.473 140.001 283.669C140.196 283.864 140.306 284.129 140.306 284.406C140.306 284.682 140.196 284.948 140.001 285.143C139.805 285.339 139.54 285.449 139.264 285.449Z" fill="#E2271E"/>
<path d="M186.029 310.425H111.611C111.334 310.425 111.069 310.315 110.874 310.12C110.678 309.924 110.568 309.659 110.568 309.382C110.568 309.106 110.678 308.841 110.874 308.645C111.069 308.45 111.334 308.34 111.611 308.34H186.029C186.306 308.34 186.571 308.45 186.767 308.645C186.962 308.841 187.072 309.106 187.072 309.382C187.072 309.659 186.962 309.924 186.767 310.12C186.571 310.315 186.306 310.425 186.029 310.425Z" fill="#E2271E"/>
<path d="M238.936 310.425H208.691C208.415 310.425 208.149 310.315 207.954 310.12C207.758 309.924 207.648 309.659 207.648 309.382C207.648 309.106 207.758 308.841 207.954 308.645C208.149 308.45 208.415 308.34 208.691 308.34H238.936C239.213 308.34 239.478 308.45 239.673 308.645C239.869 308.841 239.979 309.106 239.979 309.382C239.979 309.659 239.869 309.924 239.673 310.12C239.478 310.315 239.213 310.425 238.936 310.425Z" fill="#E2271E"/>
</svg>
