<svg width="59" height="47" viewBox="0 0 59 47" fill="none" xmlns="http://www.w3.org/2000/svg">
<g id="Group 33501">
<path id="Rectangle 4863" d="M46.6857 19.6293C50.2397 18.2601 54.133 20.308 55.3168 23.9279C56.9377 28.8845 52.7164 33.7015 47.5024 33.7993C38.4489 33.9691 31.6864 37.1798 22.9946 45.5243C22.4226 46.0735 21.4554 45.6915 21.4349 44.8988C21.4312 44.7542 21.4638 44.6077 21.5273 44.4777C28.6246 29.9567 35.0995 24.0929 46.6857 19.6293Z" fill="white"/>
<path id="Rectangle 4864" d="M31.6149 4.34496C34.1529 2.58189 37.6159 3.44703 39.2455 6.0727C41.4769 9.66793 39.0763 14.2771 34.9851 15.3574C27.8812 17.2333 23.1684 21.0653 17.9227 29.3153C17.5774 29.8583 16.7415 29.7433 16.5729 29.1224C16.5421 29.0091 16.5396 28.8873 16.5647 28.7727C19.3651 15.9608 23.3408 10.0927 31.6149 4.34496Z" fill="white"/>
<path id="Rectangle 4865" d="M11.9884 4.81641C11.2108 2.61304 8.70413 1.61302 6.54386 2.50335C3.5859 3.72244 3.02114 7.61096 5.05324 10.082C8.58176 14.3728 9.7789 18.8067 9.35008 26.1862C9.32186 26.6719 9.88545 26.9708 10.2634 26.6645C10.3323 26.6086 10.3877 26.535 10.423 26.4536C14.3683 17.3566 14.5233 11.9996 11.9884 4.81641Z" fill="white"/>
</g>
</svg>
