<svg width="33" height="33" viewBox="0 0 33 33" fill="none" xmlns="http://www.w3.org/2000/svg">
<g id="Group 33503">
<circle id="Ellipse 66" cx="16.5" cy="16.5" r="16.5" fill="#FFEEC8"/>
<g id="Group">
<path id="Vector" d="M25.4698 13.1046C25.4461 12.9804 25.3264 12.8989 25.2018 12.9227L23.7168 13.2068C23.3105 13.2848 22.9644 13.538 22.7672 13.902L22.7603 13.9148C22.3439 14.6823 21.7492 15.3585 21.0403 15.8703C20.799 16.0446 20.5699 16.2397 20.3593 16.4502L18.2119 18.5974C17.9402 18.8037 17.5566 18.7783 17.3144 18.5361C17.1853 18.407 17.1141 18.2352 17.1141 18.0525C17.1141 17.8695 17.1853 17.6976 17.3144 17.5684L18.8656 16.0172C19.394 15.4889 19.5155 14.6733 19.1611 14.034C18.8699 13.5086 18.3168 13.1822 17.7176 13.1822C17.6853 13.1822 17.5336 13.1902 17.5336 13.1902C17.1322 13.2153 16.7544 13.3858 16.4699 13.6704L15.467 14.6732C15.2293 14.9109 15.0933 15.2269 15.084 15.5629L15.0648 16.2591L14.0371 17.2869L14.1522 14.4584C14.1562 14.3568 14.1974 14.2605 14.2683 14.1874L17.5844 10.7642C17.7825 10.5668 18.0457 10.4581 18.3256 10.4581H22.3263C22.4528 10.4581 22.5553 10.3555 22.5553 10.229C22.5553 10.1025 22.4528 10 22.3263 10H18.3255C17.9226 10 17.5439 10.1568 17.2592 10.4416C17.2583 10.4424 17.2575 10.4433 17.2566 10.4442L13.9393 13.8687C13.7897 14.0229 13.7028 14.226 13.6944 14.4402L13.5591 17.7648L9.06709 22.2568C9.02414 22.2997 9 22.358 9 22.4187C9 22.4795 9.02414 22.5377 9.06709 22.5807L12.8593 26.3729C12.904 26.4176 12.9627 26.44 13.0213 26.44C13.0799 26.44 13.1385 26.4176 13.1832 26.3729L20.9775 18.5786C21.067 18.4891 21.067 18.3441 20.9775 18.2547L20.09 17.3672L20.6832 16.7741C20.8765 16.5808 21.0869 16.4017 21.3084 16.2417C22.0726 15.6899 22.7139 14.9608 23.1633 14.1326L23.1702 14.1198C23.3015 13.8775 23.5322 13.7087 23.803 13.6567L25.288 13.3726C25.4121 13.3488 25.4936 13.2288 25.4698 13.1046ZM16.9905 17.2445C16.7748 17.4602 16.656 17.7471 16.656 18.0525C16.656 18.3576 16.7748 18.6444 16.9905 18.86C17.2121 19.0816 17.5047 19.1945 17.7986 19.1945C18.0474 19.1945 18.2971 19.1137 18.5053 18.9495C18.5124 18.9439 18.5192 18.9379 18.5255 18.9316L19.1856 18.2716L19.4601 18.5461L13.1507 24.8555L10.5843 22.2892L16.8938 15.9797L17.5745 16.6604L16.9905 17.2445ZM16.7937 13.9942C16.9993 13.7886 17.2722 13.6654 17.5614 13.6474C17.5614 13.6474 17.6941 13.6403 17.7176 13.6403C18.1503 13.6403 18.5499 13.8762 18.7605 14.256C19.0163 14.7176 18.9264 15.3086 18.5417 15.6933L18.4789 15.7561L17.1853 14.4625C17.0959 14.3731 16.9509 14.3731 16.8614 14.4625L16.4131 14.9109V14.3749L16.7937 13.9942ZM15.5419 15.5755C15.5479 15.357 15.6363 15.1516 15.7908 14.9971L15.9549 14.833V15.3689L15.536 15.7878L15.5419 15.5755ZM20.4917 18.4167L13.0213 25.887L9.55293 22.4187L17.0233 14.9483L18.155 16.0799L17.8984 16.3365L17.0557 15.4938C16.9663 15.4044 16.8213 15.4044 16.7318 15.4938L10.0985 22.1272C10.009 22.2166 10.009 22.3616 10.0985 22.4511L12.9887 25.3413C13.0334 25.386 13.092 25.4084 13.1506 25.4084C13.2092 25.4084 13.2679 25.386 13.3126 25.3413L19.9459 18.708C20.0353 18.6185 20.0353 18.4735 19.9459 18.3841L19.5095 17.9476L19.7661 17.691L20.4917 18.4167Z" fill="#EF9737"/>
<path id="Vector_2" d="M15.7746 19.6678C15.1342 19.0275 14.3024 18.856 13.881 19.2775C13.4595 19.6989 13.631 20.5307 14.2713 21.1711C14.675 21.5747 15.1546 21.792 15.5596 21.792C15.7972 21.792 16.0092 21.7172 16.165 21.5614C16.3815 21.3449 16.4491 21.0177 16.3552 20.6402C16.2716 20.3039 16.0654 19.9586 15.7746 19.6678ZM15.841 21.2375C15.6387 21.4398 15.0773 21.3293 14.5953 20.8472C14.1132 20.3651 14.0026 19.8037 14.2049 19.6014C14.2684 19.5379 14.3674 19.5052 14.4882 19.5052C14.752 19.5052 15.12 19.6611 15.4507 19.9918C15.6801 20.2212 15.8478 20.4978 15.9107 20.7508C15.9634 20.963 15.9381 21.1405 15.841 21.2375Z" fill="#EF9737"/>
</g>
</g>
</svg>
