<svg width="45" height="40" viewBox="0 0 45 40" fill="none" xmlns="http://www.w3.org/2000/svg">
<g clip-path="url(#clip0_603_3560)">
<path d="M5.625 5H39.375C39.8723 5 40.3492 5.17559 40.7008 5.48816C41.0525 5.80072 41.25 6.22464 41.25 6.66667V33.3333C41.25 33.7754 41.0525 34.1993 40.7008 34.5118C40.3492 34.8244 39.8723 35 39.375 35H5.625C5.12772 35 4.65081 34.8244 4.29917 34.5118C3.94754 34.1993 3.75 33.7754 3.75 33.3333V6.66667C3.75 6.22464 3.94754 5.80072 4.29917 5.48816C4.65081 5.17559 5.12772 5 5.625 5ZM22.6125 19.4717L10.59 10.3967L8.16188 12.9367L22.6369 23.8617L36.8512 12.9283L34.3988 10.4067L22.6144 19.4717H22.6125Z" fill="white"/>
</g>
<defs>
<clipPath id="clip0_603_3560">
<rect width="45" height="40" fill="white"/>
</clipPath>
</defs>
</svg>
