<svg width="51" height="41" viewBox="0 0 51 41" fill="none" xmlns="http://www.w3.org/2000/svg">
<g filter="url(#filter0_d_603_3135)">
<path d="M40.8171 0C40.6672 0 40.5192 0.00996979 40.3728 0.0225334C40.3363 0.0124825 40.3005 0 40.2614 0H18.814C15.9308 0 13.5855 2.34533 13.5855 5.22847V27.2358H4.43567C4.19469 27.2358 4 27.4302 4 27.6715C4 30.554 6.34533 32.9 9.22847 32.9C9.3357 32.9 9.43054 32.8565 9.50657 32.7927C9.58236 32.8565 9.67719 32.9 9.78443 32.9H31.2316C34.1148 32.9 36.4601 30.5541 36.4601 27.6715C36.4601 27.6324 36.4473 27.5966 36.4381 27.5608C36.4473 27.5243 36.4601 27.4893 36.4601 27.4498V26.0337V5.66455H45.6099C45.8507 5.66455 46.0456 5.46969 46.0456 5.22887C46.0455 2.34533 43.7002 0 40.8171 0ZM31.2316 32.0286C28.8292 32.0286 26.8745 30.0747 26.8745 27.6715C26.8745 27.4302 26.6797 27.2358 26.4388 27.2358H14.4569V5.22847C14.4569 2.82583 16.4115 0.871425 18.814 0.871425H37.933C36.5221 1.80859 35.5886 3.41072 35.5886 5.22847V26.0332V27.4493C35.5886 27.4884 35.6013 27.5243 35.6107 27.56C35.6013 27.5966 35.5886 27.6316 35.5886 27.6705C35.5886 30.0737 33.634 32.0286 31.2316 32.0286Z" fill="white"/>
<path d="M31.776 23.418H19.5763C19.3352 23.418 19.1406 23.6127 19.1406 23.8537C19.1406 24.0945 19.3353 24.2892 19.5763 24.2892H31.776C32.0168 24.2892 32.2117 24.0945 32.2117 23.8537C32.2117 23.6127 32.0168 23.418 31.776 23.418Z" fill="white"/>
<path d="M31.776 19.0625H19.5763C19.3352 19.0625 19.1406 19.2573 19.1406 19.4983C19.1406 19.7391 19.3353 19.9338 19.5763 19.9338H31.776C32.0168 19.9338 32.2117 19.7391 32.2117 19.4983C32.2117 19.2573 32.0168 19.0625 31.776 19.0625Z" fill="white"/>
<path d="M31.776 14.7031H19.5763C19.3352 14.7031 19.1406 14.8978 19.1406 15.1388C19.1406 15.3796 19.3353 15.5745 19.5763 15.5745H31.776C32.0168 15.5745 32.2117 15.3796 32.2117 15.1388C32.2117 14.8978 32.0168 14.7031 31.776 14.7031Z" fill="white"/>
<path d="M31.776 10.3477H19.5763C19.3352 10.3477 19.1406 10.5423 19.1406 10.7833C19.1406 11.0242 19.3353 11.2191 19.5763 11.2191H31.776C32.0168 11.2191 32.2117 11.0242 32.2117 10.7833C32.2117 10.5422 32.0168 10.3477 31.776 10.3477Z" fill="white"/>
<path d="M31.776 5.99219H19.5763C19.3352 5.99219 19.1406 6.18688 19.1406 6.42786C19.1406 6.66867 19.3353 6.86353 19.5763 6.86353H31.776C32.0168 6.86353 32.2117 6.66859 32.2117 6.42786C32.2117 6.18688 32.0168 5.99219 31.776 5.99219Z" fill="white"/>
</g>
<defs>
<filter id="filter0_d_603_3135" x="0" y="0" width="50.0457" height="40.9" filterUnits="userSpaceOnUse" color-interpolation-filters="sRGB">
<feFlood flood-opacity="0" result="BackgroundImageFix"/>
<feColorMatrix in="SourceAlpha" type="matrix" values="0 0 0 0 0 0 0 0 0 0 0 0 0 0 0 0 0 0 127 0" result="hardAlpha"/>
<feOffset dy="4"/>
<feGaussianBlur stdDeviation="2"/>
<feComposite in2="hardAlpha" operator="out"/>
<feColorMatrix type="matrix" values="0 0 0 0 0 0 0 0 0 0 0 0 0 0 0 0 0 0 0.25 0"/>
<feBlend mode="normal" in2="BackgroundImageFix" result="effect1_dropShadow_603_3135"/>
<feBlend mode="normal" in="SourceGraphic" in2="effect1_dropShadow_603_3135" result="shape"/>
</filter>
</defs>
</svg>
