<svg width="216" height="712" viewBox="0 0 216 712" fill="none" xmlns="http://www.w3.org/2000/svg">
<g clip-path="url(#clip0_603_3086)">
<rect width="1440" height="4820" transform="translate(-383 -2591)" fill="white"/>
<rect x="-424" width="1491" height="712" fill="#FFFBF3"/>
<path d="M-199.5 767C20.5855 767 199 582.989 199 356C199 129.011 20.5855 -55 -199.5 -55" stroke="#EF9737"/>
<circle cx="168.5" cy="516.5" r="16.5" fill="#FFEEC8"/>
<circle cx="199.5" cy="343.5" r="16.5" fill="#FFEEC8"/>
<circle cx="154.5" cy="168.5" r="16.5" fill="#FFEEC8"/>
<path d="M163.47 165.105C163.446 164.98 163.326 164.899 163.202 164.923L161.717 165.207C161.31 165.285 160.964 165.538 160.767 165.902L160.76 165.915C160.344 166.682 159.749 167.359 159.04 167.87C158.799 168.045 158.57 168.24 158.359 168.45L156.212 170.597C155.94 170.804 155.557 170.778 155.314 170.536C155.185 170.407 155.114 170.235 155.114 170.052C155.114 169.869 155.185 169.698 155.314 169.568L156.866 168.017C157.394 167.489 157.516 166.673 157.161 166.034C156.87 165.509 156.317 165.182 155.718 165.182C155.685 165.182 155.534 165.19 155.534 165.19C155.132 165.215 154.754 165.386 154.47 165.67L153.467 166.673C153.229 166.911 153.093 167.227 153.084 167.563L153.065 168.259L152.037 169.287L152.152 166.458C152.156 166.357 152.197 166.261 152.268 166.187L155.584 162.764C155.783 162.567 156.046 162.458 156.326 162.458H160.326C160.453 162.458 160.555 162.356 160.555 162.229C160.555 162.103 160.453 162 160.326 162H156.326C155.923 162 155.544 162.157 155.259 162.442C155.258 162.442 155.257 162.443 155.257 162.444L151.939 165.869C151.79 166.023 151.703 166.226 151.694 166.44L151.559 169.765L147.067 174.257C147.024 174.3 147 174.358 147 174.419C147 174.479 147.024 174.538 147.067 174.581L150.859 178.373C150.904 178.418 150.963 178.44 151.021 178.44C151.08 178.44 151.139 178.418 151.183 178.373L158.978 170.579C159.067 170.489 159.067 170.344 158.978 170.255L158.09 169.367L158.683 168.774C158.877 168.581 159.087 168.402 159.308 168.242C160.073 167.69 160.714 166.961 161.163 166.133L161.17 166.12C161.302 165.877 161.532 165.709 161.803 165.657L163.288 165.373C163.412 165.349 163.494 165.229 163.47 165.105ZM154.99 169.245C154.775 169.46 154.656 169.747 154.656 170.052C154.656 170.358 154.775 170.644 154.99 170.86C155.212 171.082 155.505 171.194 155.799 171.194C156.047 171.194 156.297 171.114 156.505 170.949C156.512 170.944 156.519 170.938 156.526 170.932L157.186 170.272L157.46 170.546L151.151 176.855L148.584 174.289L154.894 167.98L155.575 168.66L154.99 169.245ZM154.794 165.994C154.999 165.789 155.272 165.665 155.561 165.647C155.561 165.647 155.694 165.64 155.718 165.64C156.15 165.64 156.55 165.876 156.76 166.256C157.016 166.718 156.926 167.309 156.542 167.693L156.479 167.756L155.185 166.463C155.096 166.373 154.951 166.373 154.861 166.463L154.413 166.911V166.375L154.794 165.994ZM153.542 167.576C153.548 167.357 153.636 167.152 153.791 166.997L153.955 166.833V167.369L153.536 167.788L153.542 167.576ZM158.492 170.417L151.021 177.887L147.553 174.419L155.023 166.948L156.155 168.08L155.898 168.337L155.056 167.494C154.966 167.404 154.821 167.404 154.732 167.494L148.098 174.127C148.009 174.217 148.009 174.362 148.098 174.451L150.989 177.341C151.033 177.386 151.092 177.408 151.151 177.408C151.209 177.408 151.268 177.386 151.313 177.341L157.946 170.708C158.035 170.618 158.035 170.473 157.946 170.384L157.509 169.948L157.766 169.691L158.492 170.417Z" fill="#EF9737"/>
<path d="M153.775 171.668C153.134 171.027 152.302 170.856 151.881 171.277C151.46 171.699 151.631 172.531 152.271 173.171C152.675 173.575 153.155 173.792 153.56 173.792C153.797 173.792 154.009 173.717 154.165 173.561C154.382 173.345 154.449 173.018 154.355 172.64C154.272 172.304 154.065 171.959 153.775 171.668ZM153.841 173.238C153.639 173.44 153.077 173.329 152.595 172.847C152.113 172.365 152.003 171.804 152.205 171.601C152.268 171.538 152.367 171.505 152.488 171.505C152.752 171.505 153.12 171.661 153.451 171.992C153.68 172.221 153.848 172.498 153.911 172.751C153.963 172.963 153.938 173.14 153.841 173.238Z" fill="#EF9737"/>
<path d="M195.779 345.223C194.477 345.223 193.416 346.283 193.416 347.586C193.416 348.888 194.477 349.949 195.779 349.949C197.081 349.949 198.142 348.888 198.142 347.586C198.145 346.283 197.084 345.223 195.779 345.223Z" fill="#EF9737"/>
<path d="M202.859 345.223C201.557 345.223 200.496 346.283 200.496 347.586C200.496 348.888 201.557 349.949 202.859 349.949C204.162 349.949 205.222 348.888 205.222 347.586C205.222 346.283 204.162 345.223 202.859 345.223Z" fill="#EF9737"/>
<path d="M201.789 339.442L201.057 340.577H201.923V339.501C201.923 339.406 201.926 339.298 201.932 339.176H201.917C201.896 339.233 201.851 339.322 201.789 339.442Z" fill="#EF9737"/>
<path d="M203.017 341.111H202.608V341.836H201.921V341.111H200.433V340.633L201.867 338.422H202.608V340.576H203.017V341.111ZM200.042 341.212V341.836H197.795V341.251L198.775 340.316C198.972 340.128 199.11 339.969 199.19 339.841C199.271 339.712 199.31 339.578 199.31 339.438C199.31 339.124 199.14 338.966 198.802 338.966C198.509 338.966 198.226 339.082 197.96 339.315V338.652C198.255 338.461 198.593 338.365 198.966 338.365C199.316 338.365 199.588 338.452 199.785 338.628C199.982 338.804 200.078 339.04 200.078 339.339C200.078 339.736 199.839 340.149 199.361 340.576L198.659 341.2V341.215H200.042V341.212V341.212ZM206.028 337H196.033C195.836 337 195.653 337.093 195.54 337.254L192.117 341.992C192.042 342.096 192 342.222 192 342.35V346.066C192 346.305 192.137 346.509 192.338 346.61C192.765 345.111 194.145 344.008 195.782 344.008C197.44 344.008 198.838 345.143 199.244 346.676H199.4C199.806 345.143 201.201 344.008 202.862 344.008C204.496 344.008 205.876 345.111 206.306 346.61C206.506 346.509 206.644 346.305 206.644 346.066V337.612C206.638 337.272 206.366 337 206.028 337V337Z" fill="#EF9737"/>
<path d="M175.563 510.656C172.761 510.656 170.615 509.827 168.8 508C166.985 509.827 164.839 510.656 162.037 510.656C162.037 515.415 161.086 522.232 168.8 525C176.514 522.232 175.563 515.415 175.563 510.656ZM168.24 519.03L165.986 516.697L166.995 515.653L168.24 516.941L170.604 514.492L171.613 515.537L168.24 519.03Z" fill="#EF9737"/>
</g>
<defs>
<clipPath id="clip0_603_3086">
<rect width="1440" height="4820" fill="white" transform="translate(-383 -2591)"/>
</clipPath>
</defs>
</svg>
