<svg width="88" height="17" viewBox="0 0 88 17" fill="none" xmlns="http://www.w3.org/2000/svg">
<g id="Group 33429">
<g id="star-s-fill (Masking group)">
<g id="star-s-fill (Masking group)_2">
<g id="star-s-fill">
<path id="Path 53" d="M12.0902 11.5142L7.80563 13.9385L8.9719 9.41411L5.1582 6.38885L10.1622 6.01745L12.0902 1.72266L14.0182 6.01745L19.0229 6.38885L15.21 9.41411L16.3762 13.9385L12.0902 11.5142Z" fill="#F9A755"/>
</g>
</g>
</g>
<g id="star-s-fill (Masking group)_3">
<g id="star-s-fill (Masking group)_4">
<g id="star-s-fill_2">
<path id="Path 53_2" d="M28.6508 11.5142L24.3662 13.9385L25.5324 9.41411L21.7188 6.38885L26.7228 6.01745L28.6508 1.72266L30.5787 6.01745L35.5835 6.38885L31.7705 9.41411L32.9368 13.9385L28.6508 11.5142Z" fill="#F9A755"/>
</g>
</g>
</g>
<g id="star-s-fill (Masking group)_5">
<g id="star-s-fill (Masking group)_6">
<g id="star-s-fill_3">
<path id="Path 53_3" d="M45.2172 11.5142L40.9326 13.9385L42.0989 9.41411L38.2852 6.38885L43.2892 6.01745L45.2172 1.72266L47.1452 6.01745L52.1499 6.38885L48.337 9.41411L49.5032 13.9385L45.2172 11.5142Z" fill="#F9A755"/>
</g>
</g>
</g>
<g id="star-s-fill (Masking group)_7">
<g id="star-s-fill (Masking group)_8">
<g id="star-s-fill_4">
<path id="Path 53_4" d="M61.7855 11.5142L57.501 13.9385L58.6672 9.41411L54.8535 6.38885L59.8575 6.01745L61.7855 1.72266L63.7135 6.01745L68.7183 6.38885L64.9053 9.41411L66.0716 13.9385L61.7855 11.5142Z" fill="#F9A755"/>
</g>
</g>
</g>
<g id="star-s-fill (Masking group)_9">
<g id="star-s-fill (Masking group)_10">
<g id="star-s-fill_5">
<path id="Path 53_5" d="M78.3598 11.5142L74.0752 13.9385L75.2414 9.41411L71.4277 6.38885L76.4318 6.01745L78.3598 1.72266L80.2878 6.01745L85.2925 6.38885L81.4795 9.41411L82.6458 13.9385L78.3598 11.5142Z" fill="#F9A755"/>
</g>
</g>
</g>
</g>
</svg>
